<svg width="48" height="48" viewBox="0 0 48 48" fill="none" xmlns="http://www.w3.org/2000/svg">
<g clip-path="url(#clip0_148_384)">
<path fill-rule="evenodd" clip-rule="evenodd" d="M20.9427 38.9582H3.2362C1.86688 38.9582 0.751587 37.847 0.751587 36.4777V18.0545C0.751587 16.691 1.86688 15.5739 3.2362 15.5739H4.60382V10.8793C4.60382 5.25811 9.20373 0.658203 14.8248 0.658203C20.4461 0.658203 25.0419 5.25801 25.0419 10.8793C25.0419 11.2951 24.7048 11.6322 24.289 11.6322H19.9557C19.5399 11.6322 19.2028 11.2951 19.2028 10.8793C19.2028 8.47467 17.226 6.49726 14.8248 6.49726C12.4237 6.49726 10.4469 8.47467 10.4469 10.8793V15.5739H26.4135C27.7833 15.5739 28.8941 16.6905 28.8941 18.0545V20.7855C30.351 20.2563 31.9231 19.9677 33.5618 19.9677C41.1156 19.9677 47.2483 26.1004 47.2483 33.6541C47.2483 41.2079 41.1156 47.3406 33.5618 47.3406C27.8884 47.3406 23.0167 43.8811 20.9427 38.9582ZM6.1097 15.5739H8.94105V10.8793C8.94105 7.64794 11.5981 4.99138 14.8248 4.99138C17.797 4.99138 20.286 7.24531 20.6601 10.1263H23.5036C23.119 5.6823 19.3642 2.16409 14.8248 2.16409C10.0319 2.16409 6.1097 6.08625 6.1097 10.8793V15.5739ZM27.3882 21.4379V18.0545C27.3882 17.5185 26.9518 17.0798 26.4135 17.0798H3.2362C2.69747 17.0798 2.25747 17.5181 2.25747 18.0545V36.4777C2.25747 37.0164 2.69747 37.4524 3.2362 37.4524H20.4102C20.062 36.2463 19.8754 34.9718 19.8754 33.6541C19.8754 28.3209 22.9324 23.6961 27.3882 21.4379ZM33.5618 21.4735C26.8392 21.4735 21.3813 26.9314 21.3813 33.6541C21.3813 40.3767 26.8392 45.8347 33.5618 45.8347C40.2845 45.8347 45.7425 40.3767 45.7425 33.6541C45.7425 26.9314 40.2845 21.4735 33.5618 21.4735ZM36.4535 33.4039C39.464 34.4889 41.6873 37.22 42.0389 40.5105C42.0616 40.723 41.993 40.935 41.8502 41.0939C41.7074 41.2527 41.5039 41.3435 41.2902 41.3435H25.8335C25.6198 41.3435 25.4162 41.2527 25.2734 41.0938C25.1306 40.9348 25.0621 40.7227 25.0849 40.5102C25.4383 37.2195 27.6622 34.4886 30.6718 33.4037C29.5821 32.5448 28.8804 31.2134 28.8804 29.7235C28.8804 27.1446 30.9829 25.0401 33.5618 25.0401C36.1432 25.0401 38.2453 27.1447 38.2453 29.7235C38.2453 31.2134 37.5438 32.545 36.4535 33.4039ZM33.5618 34.407C30.2322 34.407 27.4438 36.7262 26.7228 39.8376H40.4014C39.682 36.7261 36.8932 34.407 33.5618 34.407ZM33.5618 32.9011C35.3133 32.9011 36.7394 31.4733 36.7394 29.7235C36.7394 27.9739 35.3133 26.546 33.5618 26.546C31.8123 26.546 30.3863 27.974 30.3863 29.7235C30.3863 31.4732 31.8123 32.9011 33.5618 32.9011ZM14.8248 19.9391C17.1005 19.9391 18.945 21.7876 18.945 24.0633C18.945 25.3929 18.3202 26.5731 17.3456 27.3267V32.0723C17.3456 33.4613 16.2081 34.593 14.8248 34.593C13.4359 34.593 12.3042 33.4613 12.3042 32.0723V27.3268C11.3288 26.5732 10.7008 25.3928 10.7008 24.0633C10.7008 21.7879 12.5495 19.9391 14.8248 19.9391ZM14.8248 21.445C13.3803 21.445 12.2066 22.6188 12.2066 24.0633C12.2066 25.0067 12.705 25.8317 13.4523 26.2925C13.6747 26.4296 13.81 26.6721 13.81 26.9334V32.0723C13.81 32.6315 14.2657 33.0871 14.8248 33.0871C15.3817 33.0871 15.8397 32.6315 15.8397 32.0723V26.9334C15.8397 26.6721 15.975 26.4296 16.1974 26.2925C16.9445 25.8318 17.4391 25.0065 17.4391 24.0633C17.4391 22.619 16.2691 21.445 14.8248 21.445Z" fill="white"/>
</g>
<defs>
<clipPath id="clip0_148_384">
<rect width="48" height="48" fill="white"/>
</clipPath>
</defs>
</svg>
