<svg width="50" height="50" viewBox="0 0 50 50" fill="none" xmlns="http://www.w3.org/2000/svg">
<g id="candidate 1" clip-path="url(#clip0_148_549)">
<g id="17-Candidate">
<path id="Vector" d="M34.375 44.5312H32.8125V41.7297L29.9164 38.8336C29.7699 38.6871 29.6875 38.4884 29.6875 38.2812V32.0312C29.6875 31.4096 29.9344 30.8135 30.374 30.374C30.8135 29.9344 31.4096 29.6875 32.0312 29.6875H32.8125V22.6562C32.8125 22.0346 33.0594 21.4385 33.499 20.999C33.9385 20.5594 34.5346 20.3125 35.1562 20.3125C35.7779 20.3125 36.374 20.5594 36.8135 20.999C37.2531 21.4385 37.5 22.0346 37.5 22.6562V32.8125H35.9375V22.6562C35.9375 22.449 35.8552 22.2503 35.7087 22.1038C35.5622 21.9573 35.3635 21.875 35.1562 21.875C34.949 21.875 34.7503 21.9573 34.6038 22.1038C34.4573 22.2503 34.375 22.449 34.375 22.6562V30.4688C34.375 30.676 34.2927 30.8747 34.1462 31.0212C33.9997 31.1677 33.801 31.25 33.5938 31.25H32.0312C31.824 31.25 31.6253 31.3323 31.4788 31.4788C31.3323 31.6253 31.25 31.824 31.25 32.0312V37.9578L34.1461 40.8539C34.2926 41.0004 34.375 41.1991 34.375 41.4062V44.5312Z" fill="white"/>
<path id="Vector_2" d="M37.5 32.8125H35.9375V28.125C35.9375 27.5034 36.1844 26.9073 36.624 26.4677C37.0635 26.0282 37.6596 25.7812 38.2812 25.7812C38.9029 25.7812 39.499 26.0282 39.9385 26.4677C40.3781 26.9073 40.625 27.5034 40.625 28.125V29.6875H39.0625V28.125C39.0625 27.9178 38.9802 27.7191 38.8337 27.5726C38.6872 27.4261 38.4885 27.3438 38.2812 27.3438C38.074 27.3438 37.8753 27.4261 37.7288 27.5726C37.5823 27.7191 37.5 27.9178 37.5 28.125V32.8125Z" fill="white"/>
<path id="Vector_3" d="M40.625 32.8125H39.0625V28.9062C39.0625 28.2846 39.3094 27.6885 39.749 27.249C40.1885 26.8094 40.7846 26.5625 41.4062 26.5625C42.0279 26.5625 42.624 26.8094 43.0635 27.249C43.5031 27.6885 43.75 28.2846 43.75 28.9062V30.4688H42.1875V28.9062C42.1875 28.699 42.1052 28.5003 41.9587 28.3538C41.8122 28.2073 41.6135 28.125 41.4062 28.125C41.199 28.125 41.0003 28.2073 40.8538 28.3538C40.7073 28.5003 40.625 28.699 40.625 28.9062V32.8125Z" fill="white"/>
<path id="Vector_4" d="M45.3125 44.5312H43.75V41.4062C43.7502 41.252 43.7959 41.1012 43.8812 40.9727L45.3125 38.8281V29.6875C45.3125 29.4803 45.2302 29.2816 45.0837 29.1351C44.9372 28.9886 44.7385 28.9062 44.5312 28.9062C44.324 28.9062 44.1253 28.9886 43.9788 29.1351C43.8323 29.2816 43.75 29.4803 43.75 29.6875V32.8125H42.1875V29.6875C42.1875 29.0659 42.4344 28.4698 42.874 28.0302C43.3135 27.5907 43.9096 27.3438 44.5312 27.3438C45.1529 27.3438 45.749 27.5907 46.1885 28.0302C46.6281 28.4698 46.875 29.0659 46.875 29.6875V39.0625C46.8748 39.2168 46.8291 39.3676 46.7438 39.4961L45.3125 41.6406V44.5312Z" fill="white"/>
<path id="Vector_5" d="M32.8125 30.4688H34.375V36.7188H32.8125V30.4688Z" fill="white"/>
<path id="Vector_6" d="M46.0938 50H32.0312C31.824 50 31.6253 49.9177 31.4788 49.7712C31.3323 49.6247 31.25 49.426 31.25 49.2188V44.5312C31.25 44.324 31.3323 44.1253 31.4788 43.9788C31.6253 43.8323 31.824 43.75 32.0312 43.75H46.0938C46.301 43.75 46.4997 43.8323 46.6462 43.9788C46.7927 44.1253 46.875 44.324 46.875 44.5312V49.2188C46.875 49.426 46.7927 49.6247 46.6462 49.7712C46.4997 49.9177 46.301 50 46.0938 50ZM32.8125 48.4375H45.3125V45.3125H32.8125V48.4375Z" fill="white"/>
<path id="Vector_7" d="M29.6875 50H7.03125C6.40965 50 5.81351 49.7531 5.37397 49.3135C4.93443 48.874 4.6875 48.2779 4.6875 47.6562V7.03125C4.68754 6.82407 4.76988 6.62539 4.91641 6.47891L11.1664 0.228906C11.3129 0.0823833 11.5116 4.4248e-05 11.7188 0L39.8438 0C40.4654 0 41.0615 0.24693 41.501 0.686468C41.9406 1.12601 42.1875 1.72215 42.1875 2.34375V4.6875H40.625V2.34375C40.625 2.13655 40.5427 1.93784 40.3962 1.79132C40.2497 1.64481 40.0509 1.5625 39.8438 1.5625H12.0422L6.25 7.35469V47.6562C6.25 47.8634 6.33231 48.0622 6.47882 48.2087C6.62534 48.3552 6.82405 48.4375 7.03125 48.4375H29.6875V50Z" fill="white"/>
<path id="Vector_8" d="M11.7188 7.8125H5.46875V6.25H10.9375V0.78125H12.5V7.03125C12.5 7.23845 12.4177 7.43716 12.2712 7.58368C12.1247 7.73019 11.926 7.8125 11.7188 7.8125Z" fill="white"/>
<path id="Vector_9" d="M23.4375 18.75C22.1947 18.7488 21.0031 18.2545 20.1243 17.3757C19.2455 16.4969 18.7512 15.3053 18.75 14.0625V12.5C18.75 12.2928 18.8323 12.0941 18.9788 11.9476C19.1253 11.8011 19.324 11.7188 19.5312 11.7188C19.74 11.7323 19.9491 11.7012 20.1449 11.6274C20.3406 11.5537 20.5183 11.4391 20.6662 11.2912C20.8141 11.1433 20.9287 10.9656 21.0024 10.7699C21.0762 10.5741 21.1073 10.365 21.0938 10.1562C21.0938 9.94905 21.1761 9.75034 21.3226 9.60382C21.4691 9.45731 21.6678 9.375 21.875 9.375C22.0822 9.375 22.2809 9.45731 22.4274 9.60382C22.5739 9.75034 22.6562 9.94905 22.6562 10.1562C22.6562 10.1562 22.9023 11.7188 27.3438 11.7188C27.551 11.7188 27.7497 11.8011 27.8962 11.9476C28.0427 12.0941 28.125 12.2928 28.125 12.5V14.0625C28.1238 15.3053 27.6295 16.4969 26.7507 17.3757C25.8719 18.2545 24.6803 18.7488 23.4375 18.75ZM20.3125 13.1828V14.0625C20.3125 14.8913 20.6417 15.6862 21.2278 16.2722C21.8138 16.8583 22.6087 17.1875 23.4375 17.1875C24.2663 17.1875 25.0612 16.8583 25.6472 16.2722C26.2333 15.6862 26.5625 14.8913 26.5625 14.0625V13.2648C24.2266 13.1641 22.8906 12.6086 22.1195 11.993C21.6801 12.5942 21.0384 13.0167 20.3125 13.1828Z" fill="white"/>
<path id="Vector_10" d="M28.125 12.5H26.5625V10.9375C26.5625 10.1087 26.2333 9.31384 25.6472 8.72779C25.0612 8.14174 24.2663 7.8125 23.4375 7.8125C22.6087 7.8125 21.8138 8.14174 21.2278 8.72779C20.6417 9.31384 20.3125 10.1087 20.3125 10.9375V12.5H18.75V10.9375C18.75 9.6943 19.2439 8.50201 20.1229 7.62294C21.002 6.74386 22.1943 6.25 23.4375 6.25C24.6807 6.25 25.873 6.74386 26.7521 7.62294C27.6311 8.50201 28.125 9.6943 28.125 10.9375V12.5Z" fill="white"/>
<path id="Vector_11" d="M23.4375 21.0938C22.8159 21.0937 22.2198 20.8468 21.7802 20.4073C21.3407 19.9677 21.0938 19.3716 21.0938 18.75V17.6484H22.6562V18.75C22.6562 18.9572 22.7386 19.1559 22.8851 19.3024C23.0316 19.4489 23.2303 19.5312 23.4375 19.5312C23.5384 19.5323 23.6384 19.5129 23.7316 19.4742C23.8248 19.4355 23.9092 19.3784 23.9797 19.3062C24.0553 19.2347 24.1156 19.1485 24.1567 19.0528C24.1978 18.9572 24.2189 18.8541 24.2188 18.75V17.6484H25.7812V18.75C25.7778 19.3705 25.5297 19.9646 25.0909 20.4034C24.6521 20.8422 24.058 21.0903 23.4375 21.0938Z" fill="white"/>
<path id="Vector_12" d="M23.4375 31.2492C20.7296 31.2525 18.0952 30.3683 15.9375 28.732C15.8405 28.6593 15.7617 28.5649 15.7075 28.4564C15.6532 28.3479 15.625 28.2283 15.625 28.107V21.093C15.625 20.9401 15.6699 20.7906 15.754 20.663C15.8382 20.5354 15.9579 20.4352 16.0984 20.375L21.5672 18.0312L22.1828 19.4672L17.1875 21.6078V27.7102C19.0178 28.9965 21.2004 29.6868 23.4375 29.6868C25.6746 29.6868 27.8572 28.9965 29.6875 27.7102V21.6078L24.6922 19.4672L25.3078 18.0312L30.7766 20.375C30.9171 20.4352 31.0368 20.5354 31.121 20.663C31.2051 20.7906 31.25 20.9401 31.25 21.093V28.1078C31.25 28.2291 31.2218 28.3487 31.1675 28.4572C31.1133 28.5657 31.0345 28.66 30.9375 28.7328C28.7797 30.3688 26.1453 31.2527 23.4375 31.2492Z" fill="white"/>
<path id="Vector_13" d="M22.6562 20.3125H24.2188V30.4688H22.6562V20.3125Z" fill="white"/>
<path id="Vector_14" d="M11.7188 32.8125H13.2812V34.375H11.7188V32.8125Z" fill="white"/>
<path id="Vector_15" d="M14.8438 32.8125H28.125V34.375H14.8438V32.8125Z" fill="white"/>
<path id="Vector_16" d="M10.1562 35.9375H28.125V37.5H10.1562V35.9375Z" fill="white"/>
<path id="Vector_17" d="M10.1562 39.0625H28.125V40.625H10.1562V39.0625Z" fill="white"/>
<path id="Vector_18" d="M39.8438 22.6562C39.6365 22.6562 39.4378 22.5739 39.2913 22.4274C39.1448 22.2809 39.0625 22.0822 39.0625 21.875V19.5312H32.0312C31.4096 19.5312 30.8135 19.2843 30.374 18.8448C29.9344 18.4052 29.6875 17.8091 29.6875 17.1875V7.8125C29.6875 7.1909 29.9344 6.59476 30.374 6.15522C30.8135 5.71568 31.4096 5.46875 32.0312 5.46875H46.0938C46.7154 5.46875 47.3115 5.71568 47.751 6.15522C48.1906 6.59476 48.4375 7.1909 48.4375 7.8125V17.1875C48.4375 17.8091 48.1906 18.4052 47.751 18.8448C47.3115 19.2843 46.7154 19.5312 46.0938 19.5312H43.2922L40.3961 22.4273C40.2496 22.5739 40.0509 22.6562 39.8438 22.6562ZM32.0312 7.03125C31.824 7.03125 31.6253 7.11356 31.4788 7.26007C31.3323 7.40659 31.25 7.6053 31.25 7.8125V17.1875C31.25 17.3947 31.3323 17.5934 31.4788 17.7399C31.6253 17.8864 31.824 17.9688 32.0312 17.9688H39.8438C40.051 17.9688 40.2497 18.0511 40.3962 18.1976C40.5427 18.3441 40.625 18.5428 40.625 18.75V19.9891L42.4164 18.1977C42.5629 18.0511 42.7616 17.9688 42.9688 17.9688H46.0938C46.301 17.9688 46.4997 17.8864 46.6462 17.7399C46.7927 17.5934 46.875 17.3947 46.875 17.1875V7.8125C46.875 7.6053 46.7927 7.40659 46.6462 7.26007C46.4997 7.11356 46.301 7.03125 46.0938 7.03125H32.0312Z" fill="white"/>
<path id="Vector_19" d="M37.5 15.6246C37.2928 15.6246 37.0941 15.5422 36.9477 15.3957L35.3852 13.8332L36.4899 12.7285L37.5 13.7387L41.6352 9.60352L42.7399 10.7082L38.0524 15.3957C37.9059 15.5422 37.7072 15.6246 37.5 15.6246Z" fill="white"/>
</g>
</g>
<defs>
<clipPath id="clip0_148_549">
<rect width="50" height="50" fill="white"/>
</clipPath>
</defs>
</svg>
