<svg width="19" height="19" viewBox="0 0 19 19" fill="none" xmlns="http://www.w3.org/2000/svg">
<path d="M7.67921 8.94599C7.36254 8.62932 6.88754 8.62932 6.57087 8.94599C6.25421 9.26265 6.25421 9.73765 6.57087 10.0543L8.94587 12.4293C9.10421 12.5877 9.26254 12.6668 9.50004 12.6668C9.73754 12.6668 9.89587 12.5877 10.0542 12.4293L15.5959 6.09599C15.8334 5.70015 15.8334 5.22515 15.4375 4.98765C15.1209 4.75015 14.6459 4.75015 14.4084 5.06682L9.50004 10.6877L7.67921 8.94599Z" fill="#004F9F"/>
<path d="M16.625 8.70801C16.15 8.70801 15.8334 9.02467 15.8334 9.49967C15.8334 12.983 12.9834 15.833 9.50004 15.833C6.01671 15.833 3.16671 12.983 3.16671 9.49967C3.16671 7.83717 3.80004 6.25384 4.98754 5.06634C6.17504 3.79967 7.75837 3.16634 9.50004 3.16634C9.97504 3.16634 10.5292 3.24551 11.0042 3.32467C11.4 3.48301 11.875 3.24551 12.0334 2.77051C12.1917 2.29551 11.875 1.97884 11.4792 1.82051H11.4C10.7667 1.66217 10.1334 1.58301 9.50004 1.58301C5.14587 1.58301 1.58337 5.14551 1.58337 9.57884C1.58337 11.6372 2.45421 13.6955 3.87921 15.1205C5.38337 16.6247 7.36254 17.4163 9.42087 17.4163C13.775 17.4163 17.3375 13.8538 17.3375 9.49967C17.4167 9.02467 17.0209 8.70801 16.625 8.70801Z" fill="#004F9F"/>
</svg>
