<svg width="48" height="48" viewBox="0 0 48 48" fill="none" xmlns="http://www.w3.org/2000/svg">
<g clip-path="url(#clip0_148_386)">
<path d="M37.1045 26.2089C36.2457 26.2089 35.4098 26.3089 34.6078 26.4976C34.799 25.6834 34.8955 24.8476 34.8955 23.9999C34.8955 23.1522 34.7991 22.3163 34.6079 21.5023C35.4099 21.691 36.2457 21.791 37.1046 21.791C38.8129 21.791 40.4487 21.4065 41.9667 20.6483C42.3142 20.4748 42.4552 20.0526 42.2816 19.7051C42.108 19.3576 41.6856 19.2167 41.3384 19.3902C40.0171 20.0501 38.5927 20.3846 37.1045 20.3846C31.8721 20.3846 27.6152 16.1278 27.6152 10.8953C27.6152 5.66288 31.8721 1.40625 37.1045 1.40625C42.3368 1.40625 46.5938 5.66306 46.5938 10.8955C46.5938 13.4226 45.6117 15.8003 43.8288 17.5911C43.5547 17.8663 43.5557 18.3114 43.8308 18.5854C44.1061 18.8595 44.5513 18.8585 44.8252 18.5833C46.8726 16.5272 48 13.797 48 10.8955C48 4.88775 43.1123 0 37.1045 0C31.0967 0 26.2089 4.88775 26.2089 10.8955C26.2089 11.7543 26.3089 12.5902 26.4976 13.3922C25.6835 13.201 24.8477 13.1046 24 13.1046C23.1522 13.1046 22.3164 13.201 21.5024 13.3922C21.6911 12.5903 21.7911 11.7544 21.7911 10.8956C21.7911 10.1569 21.7166 9.41841 21.5697 8.70056C21.4918 8.32012 21.1207 8.07478 20.7398 8.15269C20.3594 8.2305 20.1142 8.60203 20.192 8.98256C20.3198 9.60778 20.3848 10.2514 20.3848 10.8956C20.3848 16.128 16.128 20.3849 10.8955 20.3849C5.66306 20.3849 1.40625 16.1279 1.40625 10.8955C1.40625 5.66316 5.66306 1.40625 10.8955 1.40625C14.2725 1.40625 17.4222 3.22434 19.1154 6.15084C19.31 6.48694 19.7399 6.60169 20.0762 6.40734C20.4123 6.21291 20.5272 5.78269 20.3327 5.44659C18.3889 2.08706 14.7728 0 10.8955 0C4.88775 0 0 4.88775 0 10.8955C0 16.9033 4.88775 21.7911 10.8955 21.7911C11.7543 21.7911 12.5902 21.6911 13.3921 21.5024C13.2009 22.3165 13.1045 23.1523 13.1045 24C13.1045 24.8477 13.2009 25.6835 13.3921 26.4976C12.5902 26.3089 11.7543 26.2089 10.8955 26.2089C4.88775 26.2089 0 31.0967 0 37.1045C0 43.1123 4.88775 48 10.8955 48C16.9033 48 21.7911 43.1123 21.7911 37.1045C21.7911 36.2457 21.6911 35.4098 21.5024 34.6079C22.3166 34.7991 23.1524 34.8955 24 34.8955C24.8477 34.8955 25.6835 34.7991 26.4976 34.6079C26.3089 35.4098 26.2089 36.2457 26.2089 37.1045C26.2089 43.1123 31.0967 48 37.1045 48C43.1123 48 48 43.1123 48 37.1045C48 31.0967 43.1123 26.2089 37.1045 26.2089ZM10.8955 46.5938C5.66306 46.5938 1.40625 42.3369 1.40625 37.1045C1.40625 31.872 5.66306 27.6152 10.8955 27.6152C16.128 27.6152 20.3848 31.872 20.3848 37.1045C20.3848 42.3369 16.1279 46.5938 10.8955 46.5938ZM24 33.4893C22.968 33.4893 21.9566 33.3254 20.9892 33.002C19.8823 30.2885 17.7116 28.1177 14.998 27.0108C14.6745 26.0434 14.5107 25.0322 14.5107 24C14.5107 22.9678 14.6745 21.9566 14.998 20.9892C17.7115 19.8823 19.8822 17.7116 20.9892 14.9981C21.9565 14.6746 22.9678 14.5107 24 14.5107C25.0322 14.5107 26.0435 14.6746 27.0108 14.9981C28.1177 17.7115 30.2884 19.8822 33.0018 20.9891C33.3253 21.9564 33.4892 22.9677 33.4892 23.9999C33.4892 25.0319 33.3253 26.0432 33.0017 27.0107C30.2882 28.1176 28.1175 30.2883 27.0106 33.0018C26.0434 33.3254 25.0321 33.4893 24 33.4893ZM37.1045 46.5938C31.8721 46.5938 27.6152 42.3369 27.6152 37.1045C27.6152 31.872 31.872 27.6152 37.1045 27.6152C42.3369 27.6152 46.5938 31.8721 46.5938 37.1045C46.5938 42.3368 42.3369 46.5938 37.1045 46.5938Z" fill="white"/>
<path d="M16.0588 34.3178C15.6975 34.4601 15.52 34.8684 15.6623 35.2297C15.8114 35.6082 15.9139 36.0006 15.9688 36.4023H14.4909C14.4143 35.0499 14.1174 33.7867 13.6349 32.7777C13.7256 32.8353 13.8148 32.8959 13.9024 32.9596C14.2164 33.1879 14.6561 33.1184 14.8845 32.804C15.1128 32.4899 15.0431 32.0502 14.729 31.8219C13.6092 31.0082 12.2836 30.5781 10.8955 30.5781C7.30771 30.5781 4.38674 33.4877 4.36828 37.0712C4.36771 37.0826 4.36743 37.0939 4.36743 37.1055C4.36743 37.117 4.36771 37.1283 4.36828 37.1397C4.38674 40.7233 7.30771 43.6328 10.8955 43.6328C14.4948 43.6328 17.4229 40.7047 17.4229 37.1055C17.4229 36.2803 17.2707 35.4757 16.9707 34.7143C16.8284 34.3529 16.4202 34.1752 16.0588 34.3178ZM10.1924 32.2962V36.4022H8.70918C8.83565 34.4567 9.47428 32.9259 10.1924 32.2962ZM10.1924 37.8085V41.9146C9.47428 41.2848 8.83574 39.7541 8.70918 37.8085H10.1924ZM11.5987 41.9146V37.8085H13.0819C12.9553 39.7542 12.3168 41.2848 11.5987 41.9146ZM11.5987 36.4022V32.2962C12.3168 32.9259 12.9553 34.4567 13.0819 36.4022H11.5987ZM8.15428 32.7813C7.67278 33.7897 7.37662 35.0515 7.30003 36.4022H5.82253C6.03224 34.8813 6.91246 33.5714 8.15428 32.7813ZM5.82253 37.8085H7.30012C7.37662 39.1592 7.67287 40.4209 8.15437 41.4294C6.91246 40.6394 6.03224 39.3295 5.82253 37.8085ZM13.6367 41.4294C14.1182 40.421 14.4143 39.1592 14.4909 37.8085H15.9685C15.7587 39.3295 14.8785 40.6394 13.6367 41.4294Z" fill="white"/>
<path d="M31.2554 24.5684V23.0127C31.2554 21.8497 30.3091 20.9033 29.146 20.9033H28.2468C27.8264 18.9451 26.0819 17.4727 24 17.4727C21.9181 17.4727 20.1736 18.9451 19.7532 20.9033H18.8539C17.6909 20.9033 16.7446 21.8497 16.7446 23.0127V24.5684C16.7446 25.7315 17.6909 26.6778 18.8539 26.6778H19.6566V27.4805C19.6566 28.6435 20.6029 29.5898 21.766 29.5898H23.2718C23.6602 29.5898 23.9749 29.2751 23.9749 28.8867C23.9749 28.4983 23.6602 28.1836 23.2718 28.1836H21.766C21.3783 28.1836 21.0629 27.8682 21.0629 27.4805V21.8159C21.0629 20.1965 22.3804 18.8789 23.9999 18.8789C25.6193 18.8789 26.9369 20.1965 26.9369 21.8159V26.9121C26.9369 27.3005 27.2516 27.6152 27.64 27.6152C28.0284 27.6152 28.3431 27.3005 28.3431 26.9121V26.6777H29.1458C30.3091 26.6778 31.2554 25.7316 31.2554 24.5684ZM18.8539 25.2715C18.4662 25.2715 18.1508 24.9562 18.1508 24.5684V23.0127C18.1508 22.625 18.4662 22.3096 18.8539 22.3096H19.6566V25.2715H18.8539ZM28.3432 22.3097H29.1459C29.5337 22.3097 29.849 22.6251 29.849 23.0128V24.5685C29.849 24.9562 29.5337 25.2716 29.1459 25.2716H28.3432V22.3097Z" fill="white"/>
<path d="M42.0864 30.9052C41.4972 30.4293 40.6486 30.4742 40.1123 31.0103L37.582 33.5405C37.0661 34.0565 37.005 34.8846 37.4397 35.4664C37.5339 35.5927 37.6386 35.7135 37.7507 35.8257C38.0182 36.0932 38.3254 36.3101 38.6642 36.4708C38.4578 36.9172 38.1426 37.3589 37.7507 37.7507C37.3589 38.1426 36.9172 38.4577 36.4707 38.6643C36.3099 38.3255 36.0932 38.0183 35.8254 37.7505C35.7129 37.6381 35.5922 37.5336 35.4665 37.4397C34.8843 37.0051 34.0564 37.0663 33.5404 37.5821L31.0103 40.1122C30.4745 40.6481 30.4292 41.4967 30.9049 42.086C31.0314 42.2427 31.1664 42.3862 31.3015 42.5081C32.1274 43.268 33.2196 43.633 34.4235 43.633C36.4437 43.6329 38.7778 42.605 40.6914 40.6915C43.744 37.6387 44.5426 33.516 42.5101 31.3041C42.3843 31.1647 42.2416 31.0305 42.0864 30.9052ZM39.697 39.6971C37.2202 42.1743 33.8813 42.9708 32.2489 41.4687C32.1634 41.3916 32.0794 41.3022 31.9993 41.2028C31.9763 41.1741 31.9785 41.1328 32.0049 41.1067L34.5349 38.5766C34.5492 38.5622 34.5687 38.5547 34.5876 38.5547C34.6013 38.5547 34.6145 38.5587 34.6254 38.5667C34.6974 38.6204 34.7667 38.6806 34.8313 38.7451C34.9895 38.9034 35.1164 39.0852 35.209 39.2858C35.5224 39.9645 36.3289 40.2693 37.007 39.9655C37.6212 39.6901 38.2224 39.2682 38.7453 38.7453C39.2682 38.2223 39.6902 37.6212 39.9654 37.0072C40.2696 36.329 39.9646 35.5223 39.2856 35.209C39.0851 35.1165 38.9034 34.9895 38.7453 34.8314C38.6807 34.7669 38.6206 34.6976 38.5665 34.6251C38.5474 34.5995 38.5518 34.5598 38.5765 34.535L41.1067 32.0048C41.1328 31.9785 41.1743 31.9762 41.203 31.9994C41.302 32.0793 41.3914 32.1632 41.4686 32.2489C41.4702 32.2507 41.4717 32.2523 41.4733 32.2541C42.9708 33.8811 42.174 37.2201 39.697 39.6971Z" fill="white"/>
<path d="M16.0166 5.82422H5.77441C4.99891 5.82422 4.36816 6.45516 4.36816 7.23047V14.5606C4.36816 15.3357 4.99873 15.9668 5.77441 15.9668H16.0166C16.7917 15.9668 17.4229 15.3363 17.4229 14.5606V7.23047C17.4229 6.85884 17.278 6.5205 17.0419 6.26887C16.8212 6.01847 16.4354 5.82422 16.0166 5.82422ZM5.77441 8.22497L8.44498 10.8955L5.77441 13.5661V8.22497ZM11.6434 10.6093C11.2309 11.0215 10.5599 11.0217 10.1476 10.6093C9.10826 9.57 7.8056 8.26734 6.76873 7.23047H15.0222C14.0339 8.21878 12.6162 9.63647 11.6434 10.6093ZM9.46291 11.8664C10.3161 12.4767 11.4746 12.4767 12.328 11.8664L15.0221 14.5605H6.76882L9.46291 11.8664ZM16.0174 13.5669L13.346 10.8956L16.0167 8.22488L16.0174 13.5669Z" fill="white"/>
<path d="M40.585 4.36914H33.624C31.9439 4.36914 30.5771 5.73592 30.5771 7.41602V11.4649C30.5771 13.145 31.9439 14.5118 33.624 14.5118H36.8133L38.3191 16.0176C38.5889 16.2873 38.9469 16.4302 39.3122 16.4302C39.4936 16.4301 39.6768 16.3948 39.8517 16.3225C40.3791 16.104 40.7199 15.594 40.7199 15.0233V14.5089C42.3377 14.4382 43.6319 13.0999 43.6319 11.4649V7.41602C43.6318 5.73592 42.2651 4.36914 40.585 4.36914ZM42.2256 11.4648C42.2256 12.3694 41.4896 13.1054 40.585 13.1054H40.0166C39.6282 13.1054 39.3135 13.4201 39.3135 13.8085L39.3131 15.0227L37.6017 13.3113C37.4698 13.1795 37.2911 13.1054 37.1045 13.1054H33.624C32.7194 13.1054 31.9834 12.3694 31.9834 11.4648V7.41602C31.9834 6.51142 32.7194 5.77539 33.624 5.77539H40.585C41.4896 5.77539 42.2256 6.51142 42.2256 7.41602V11.4648Z" fill="white"/>
<path d="M37.1045 10.1426C37.4928 10.1426 37.8076 9.82778 37.8076 9.43945C37.8076 9.05113 37.4928 8.73633 37.1045 8.73633C36.7162 8.73633 36.4014 9.05113 36.4014 9.43945C36.4014 9.82778 36.7162 10.1426 37.1045 10.1426Z" fill="white"/>
<path d="M34.1924 10.1426C34.5807 10.1426 34.8955 9.82778 34.8955 9.43945C34.8955 9.05113 34.5807 8.73633 34.1924 8.73633C33.8041 8.73633 33.4893 9.05113 33.4893 9.43945C33.4893 9.82778 33.8041 10.1426 34.1924 10.1426Z" fill="white"/>
<path d="M40.0166 10.1426C40.4049 10.1426 40.7197 9.82778 40.7197 9.43945C40.7197 9.05113 40.4049 8.73633 40.0166 8.73633C39.6283 8.73633 39.3135 9.05113 39.3135 9.43945C39.3135 9.82778 39.6283 10.1426 40.0166 10.1426Z" fill="white"/>
</g>
<defs>
<clipPath id="clip0_148_386">
<rect width="48" height="48" fill="white"/>
</clipPath>
</defs>
</svg>
