<svg width="20" height="20" viewBox="0 0 20 20" fill="none" xmlns="http://www.w3.org/2000/svg">
<g clip-path="url(#clip0_148_808)">
<path d="M10 1.66602C5.39751 1.66602 1.66667 5.39685 1.66667 9.99935C1.66667 14.1585 4.71417 17.606 8.69834 18.2318V12.4077H6.58167V9.99935H8.69834V8.16352C8.69834 6.07518 9.94167 4.92185 11.8458 4.92185C12.7575 4.92185 13.7108 5.08435 13.7108 5.08435V7.13435H12.6608C11.625 7.13435 11.3025 7.77685 11.3025 8.43602V9.99935H13.6133L13.2442 12.4077H11.3025V18.2318C15.2858 17.6068 18.3333 14.1577 18.3333 9.99935C18.3333 5.39685 14.6025 1.66602 10 1.66602Z" fill="white"/>
</g>
<defs>
<clipPath id="clip0_148_808">
<rect width="20" height="20" fill="white"/>
</clipPath>
</defs>
</svg>
