<svg width="20" height="20" viewBox="0 0 20 20" fill="none" xmlns="http://www.w3.org/2000/svg">
<g clip-path="url(#clip0_148_819)">
<path d="M10 1.66602C12.2642 1.66602 12.5467 1.67435 13.435 1.71602C14.3225 1.75768 14.9267 1.89685 15.4583 2.10352C16.0083 2.31518 16.4717 2.60185 16.935 3.06435C17.3587 3.48093 17.6866 3.98484 17.8958 4.54102C18.1017 5.07185 18.2417 5.67685 18.2833 6.56435C18.3225 7.45268 18.3333 7.73518 18.3333 9.99935C18.3333 12.2635 18.325 12.546 18.2833 13.4343C18.2417 14.3218 18.1017 14.926 17.8958 15.4577C17.6872 16.0142 17.3593 16.5182 16.935 16.9343C16.5183 17.3579 16.0144 17.6858 15.4583 17.8952C14.9275 18.101 14.3225 18.241 13.435 18.2827C12.5467 18.3218 12.2642 18.3327 10 18.3327C7.73583 18.3327 7.45333 18.3243 6.565 18.2827C5.6775 18.241 5.07333 18.101 4.54166 17.8952C3.98527 17.6864 3.48127 17.3585 3.065 16.9343C2.64117 16.5178 2.31327 16.0139 2.10416 15.4577C1.8975 14.9268 1.75833 14.3218 1.71666 13.4343C1.6775 12.546 1.66666 12.2635 1.66666 9.99935C1.66666 7.73518 1.675 7.45268 1.71666 6.56435C1.75833 5.67602 1.8975 5.07268 2.10416 4.54102C2.31269 3.9845 2.64067 3.48045 3.065 3.06435C3.48139 2.64037 3.98535 2.31246 4.54166 2.10352C5.07333 1.89685 5.67666 1.75768 6.565 1.71602C7.45333 1.67685 7.73583 1.66602 10 1.66602ZM10 5.83268C8.89493 5.83268 7.83512 6.27167 7.05372 7.05307C6.27232 7.83447 5.83333 8.89428 5.83333 9.99935C5.83333 11.1044 6.27232 12.1642 7.05372 12.9456C7.83512 13.727 8.89493 14.166 10 14.166C11.1051 14.166 12.1649 13.727 12.9463 12.9456C13.7277 12.1642 14.1667 11.1044 14.1667 9.99935C14.1667 8.89428 13.7277 7.83447 12.9463 7.05307C12.1649 6.27167 11.1051 5.83268 10 5.83268ZM15.4167 5.62435C15.4167 5.34808 15.3069 5.08313 15.1116 4.88778C14.9162 4.69243 14.6513 4.58268 14.375 4.58268C14.0987 4.58268 13.8338 4.69243 13.6384 4.88778C13.4431 5.08313 13.3333 5.34808 13.3333 5.62435C13.3333 5.90062 13.4431 6.16557 13.6384 6.36092C13.8338 6.55627 14.0987 6.66602 14.375 6.66602C14.6513 6.66602 14.9162 6.55627 15.1116 6.36092C15.3069 6.16557 15.4167 5.90062 15.4167 5.62435ZM10 7.49935C10.663 7.49935 11.2989 7.76274 11.7678 8.23158C12.2366 8.70042 12.5 9.33631 12.5 9.99935C12.5 10.6624 12.2366 11.2983 11.7678 11.7671C11.2989 12.236 10.663 12.4993 10 12.4993C9.33696 12.4993 8.70107 12.236 8.23223 11.7671C7.76339 11.2983 7.5 10.6624 7.5 9.99935C7.5 9.33631 7.76339 8.70042 8.23223 8.23158C8.70107 7.76274 9.33696 7.49935 10 7.49935Z" fill="white"/>
</g>
<defs>
<clipPath id="clip0_148_819">
<rect width="20" height="20" fill="white"/>
</clipPath>
</defs>
</svg>
