<svg width="20" height="20" viewBox="0 0 20 20" fill="none" xmlns="http://www.w3.org/2000/svg">
<g clip-path="url(#clip0_148_816)">
<path d="M5.78333 4.1675C5.78311 4.60953 5.6073 5.03336 5.29459 5.34577C4.98187 5.65817 4.55786 5.83355 4.11583 5.83333C3.6738 5.83311 3.24997 5.65731 2.93756 5.34459C2.62516 5.03187 2.44978 4.60786 2.45 4.16583C2.45022 3.72381 2.62602 3.29997 2.93874 2.98757C3.25146 2.67516 3.67547 2.49978 4.1175 2.5C4.55952 2.50022 4.98336 2.67603 5.29576 2.98874C5.60817 3.30146 5.78355 3.72547 5.78333 4.1675ZM5.83333 7.0675H2.5V17.5008H5.83333V7.0675ZM11.1 7.0675H7.78333V17.5008H11.0667V12.0258C11.0667 8.97583 15.0417 8.6925 15.0417 12.0258V17.5008H18.3333V10.8925C18.3333 5.75083 12.45 5.9425 11.0667 8.4675L11.1 7.0675Z" fill="white"/>
</g>
<defs>
<clipPath id="clip0_148_816">
<rect width="20" height="20" fill="white"/>
</clipPath>
</defs>
</svg>
