<svg width="143" height="80" viewBox="0 0 143 80" fill="none" xmlns="http://www.w3.org/2000/svg">
<g clip-path="url(#clip0_148_226)">
<path d="M33.1446 21.007C36.2039 21.007 38.6839 18.5362 38.6839 15.4884C38.6839 12.4405 36.2039 9.96973 33.1446 9.96973C30.0854 9.96973 27.6053 12.4405 27.6053 15.4884C27.6053 18.5362 30.0854 21.007 33.1446 21.007Z" fill="#004F9F"/>
<path d="M35.8839 23.625L34.2261 24.8939L35.2774 25.9412L33.8016 27.4115L35.5907 34.3601L33.1446 36.7972L30.6984 34.3601L32.4875 27.4115L31.0118 25.9412L32.063 24.8939L30.4053 23.625C25.5736 24.3904 21.7021 27.1396 20.3477 30.6844C23.0566 34.8737 27.7771 37.6532 33.1446 37.6532C38.512 37.6532 43.2325 34.8737 45.9415 30.6844C44.587 27.1396 40.7156 24.3904 35.8839 23.625Z" fill="#004F9F"/>
<path d="M49.1559 6.59659C40.3315 -2.19496 26.0284 -2.19496 17.204 6.59659C8.37959 15.3881 8.37959 29.6379 17.204 38.4294C26.0284 47.221 40.3315 47.221 49.1559 38.4294C57.9803 29.6379 57.9803 15.3881 49.1559 6.59659ZM45.7595 35.0256C38.8253 41.9339 27.5548 41.9339 20.6206 35.0256C13.6864 28.1172 13.6864 16.8886 20.6206 9.98027C27.5548 3.07191 38.8253 3.07191 45.7595 9.98027C52.6937 16.8886 52.6937 28.1172 45.7595 35.0256Z" fill="#757575"/>
<path d="M14.9297 40.6956C12.4835 38.2586 10.5933 35.4187 9.29944 32.2465C9.17814 31.9444 9.05685 31.6423 8.94566 31.3301L7.41933 33.8276C4.97315 36.2646 19.3672 50.5949 21.8133 48.1679L24.3202 46.6473C24.0169 46.5365 23.7036 46.4257 23.4003 46.2948C20.2162 45.0058 17.3657 43.1226 14.9196 40.6856L14.9297 40.6956Z" fill="#757575"/>
<path d="M7.7832 40.4639L1.52626 46.6975C-0.515589 48.7317 -0.515589 52.0248 1.52626 54.049C3.5681 56.0832 6.87347 56.0832 8.90521 54.049L15.1622 47.8153C11.968 46.3148 8.96586 43.2635 7.7832 40.4639Z" fill="#757575"/>
<path d="M52.5623 47.9961V66.264H47.3769V59.1441H40.3315V66.264H35.146V47.9961H40.3315V54.8642H47.3769V47.9961H52.5623Z" fill="#004F9F"/>
<path d="M56.262 66.264V47.9961H61.4474V66.264H56.262Z" fill="#004F9F"/>
<path d="M78.0551 60.5235C79.1771 59.9998 80.0464 59.2647 80.663 58.3382C81.32 57.3412 81.6434 56.1428 81.6434 54.7329C81.6434 53.3231 81.32 52.165 80.663 51.1479C80.0059 50.1307 79.0659 49.3553 77.8428 48.8115C76.6197 48.2778 75.1742 48.0059 73.4963 48.0059H65.1368V66.2737H70.3223V61.4198H73.1324L76.458 66.2737H82.0175L78.0551 60.5235ZM75.619 56.7168C75.0731 57.1901 74.2645 57.4218 73.1829 57.4218H70.3223V52.0743H73.1829C74.2645 52.0743 75.0731 52.316 75.619 52.7893C76.1547 53.2727 76.4276 53.9172 76.4276 54.7329C76.4276 55.5487 76.1547 56.2435 75.619 56.7168Z" fill="#004F9F"/>
<path d="M99.2317 62.2458V66.264H84.5344V47.9961H98.888V52.0142H89.639V55.0656H97.7862V58.9024H89.639V62.2458H99.2317Z" fill="#004F9F"/>
<path d="M39.5836 79.6473C38.9468 79.6473 38.3605 79.5365 37.8146 79.3251C37.2688 79.1136 36.8038 78.8115 36.3995 78.4187C35.9952 78.026 35.6919 77.5728 35.4696 77.0491C35.2472 76.5255 35.136 75.9515 35.136 75.3271C35.136 74.7027 35.2472 74.1287 35.4696 73.605C35.6919 73.0814 36.0053 72.6181 36.4096 72.2354C36.8139 71.8427 37.289 71.5406 37.8248 71.3291C38.3605 71.1176 38.9468 71.0068 39.5836 71.0068C40.2204 71.0068 40.7561 71.1075 41.2817 71.2989C41.8074 71.4902 42.2622 71.7923 42.6362 72.1851L42.242 72.5879C41.8781 72.2254 41.4637 71.9736 41.0189 71.8125C40.5742 71.6513 40.0991 71.5708 39.6038 71.5708C39.1085 71.5708 38.5525 71.6614 38.0775 71.8528C37.6125 72.0441 37.198 72.3059 36.8544 72.6483C36.5107 72.9907 36.2378 73.3835 36.0457 73.8467C35.8537 74.2999 35.7627 74.7933 35.7627 75.3371C35.7627 75.881 35.8537 76.3744 36.0457 76.8276C36.2378 77.2808 36.5107 77.6836 36.8544 78.026C37.198 78.3684 37.6125 78.6302 38.0775 78.8215C38.5424 79.0129 39.0579 79.1035 39.6038 79.1035C40.1496 79.1035 40.5742 79.0229 41.0189 78.8618C41.4637 78.7007 41.868 78.4389 42.242 78.0763L42.6362 78.4791C42.2622 78.882 41.8074 79.174 41.2817 79.3754C40.7561 79.5768 40.1901 79.6775 39.5836 79.6775V79.6473Z" fill="black"/>
<path d="M56.0699 79.0227V79.5867H50.1566V71.0469H55.8879V71.6008H50.7833V74.9744H55.3421V75.5182H50.7833V79.0227H56.0699Z" fill="black"/>
<path d="M68.2806 76.5957C68.4221 76.5554 68.5636 76.5051 68.695 76.4447C69.2105 76.213 69.6047 75.8807 69.8878 75.4577C70.1708 75.0348 70.3022 74.5212 70.3022 73.927C70.3022 73.3329 70.1607 72.7991 69.8878 72.3762C69.6149 71.9532 69.2105 71.6209 68.695 71.3893C68.1795 71.1577 67.5629 71.0469 66.8452 71.0469H63.7723V79.5867H64.399V76.7971H66.8452C67.1383 76.7971 67.4113 76.777 67.6741 76.7367L69.726 79.5867H70.4336L68.2806 76.5957ZM66.8452 76.2432H64.399V71.6108H66.8452C67.7651 71.6108 68.4625 71.8122 68.9477 72.215C69.4228 72.6179 69.6654 73.1919 69.6654 73.927C69.6654 74.6622 69.4228 75.2261 68.9477 75.639C68.4726 76.0418 67.7752 76.2533 66.8452 76.2533V76.2432Z" fill="black"/>
<path d="M79.531 79.5867V71.6108H76.448V71.0469H83.2407V71.6108H80.1577V79.5867H79.531Z" fill="black"/>
<path d="M90.2051 79.5867V71.0469H90.8318V79.5867H90.2051Z" fill="black"/>
<path d="M99.8685 71.6008V75.2563H104.437V75.8102H99.8685V79.5867H99.2418V71.0469H104.973V71.6008H99.8685Z" fill="black"/>
<path d="M112.393 79.5867V71.0469H113.019V79.5867H112.393Z" fill="black"/>
<path d="M127.353 79.0227V79.5867H121.439V71.0469H127.171V71.6008H122.056V74.9744H126.625V75.5182H122.056V79.0227H127.353Z" fill="black"/>
<path d="M135.055 79.5867V71.0469H138.451C139.361 71.0469 140.149 71.2281 140.837 71.6008C141.524 71.9734 142.06 72.4668 142.434 73.1113C142.818 73.7558 143 74.491 143 75.3168C143 76.1425 142.808 76.8777 142.434 77.5222C142.05 78.1667 141.524 78.6702 140.837 79.0328C140.149 79.3953 139.351 79.5867 138.451 79.5867H135.055ZM135.672 79.0227H138.391C139.199 79.0227 139.897 78.8616 140.493 78.5494C141.09 78.2372 141.554 77.7941 141.878 77.2402C142.201 76.6864 142.363 76.0418 142.363 75.3168C142.363 74.5917 142.201 73.9572 141.878 73.3933C141.554 72.8394 141.09 72.3963 140.493 72.0841C139.897 71.7719 139.199 71.6108 138.391 71.6108H135.672V79.0328V79.0227Z" fill="black"/>
<path d="M143 45.3076H102.679V68.9833H143V45.3076Z" fill="#004F9F"/>
<path d="M107.5 66.264V47.9961H112.686V66.264H107.5Z" fill="white"/>
<path d="M116.375 66.264V47.9961H121.561V66.264H116.375Z" fill="white"/>
<path d="M129.142 66.264V52.0948H123.511V47.9961H139.937V52.0948H134.327V66.264H129.142Z" fill="white"/>
</g>
<defs>
<clipPath id="clip0_148_226">
<rect width="143" height="80" fill="white"/>
</clipPath>
</defs>
</svg>
