<svg width="48" height="48" viewBox="0 0 48 48" fill="none" xmlns="http://www.w3.org/2000/svg">
<path fill-rule="evenodd" clip-rule="evenodd" d="M15.5551 38.4455H5.88036C3.80864 38.4455 2.11273 36.7495 2.11273 34.6779V13.9448C2.11273 11.8732 3.80864 10.1772 5.88036 10.1772H11.5399C11.5535 9.87966 11.7417 9.6167 12.0216 9.50893L13.3476 8.99863C13.5491 8.29105 13.8308 7.61133 14.1892 6.97011L13.6115 5.67091C13.4849 5.3862 13.5468 5.05293 13.7671 4.8326L15.7135 2.88616C15.9338 2.66583 16.2671 2.60399 16.5518 2.73058C16.5518 2.73058 17.851 3.30818 17.851 3.30827C18.4922 2.94987 19.1716 2.66846 19.8774 2.46856L20.3901 1.14009C20.5022 0.849733 20.7813 0.658203 21.0926 0.658203H23.8458C24.1574 0.658203 24.4369 0.850203 24.5487 1.14112L25.0588 2.46874C25.7644 2.66865 26.4436 2.94997 27.0846 3.30818L28.3838 2.73058C28.6685 2.60399 29.0018 2.66583 29.2221 2.88616L31.1685 4.8326C31.3886 5.05265 31.4505 5.38536 31.3245 5.66987L30.7489 6.96945C31.1075 7.61105 31.3892 8.29114 31.5891 8.999L32.914 9.50893C33.194 9.6167 33.3821 9.87966 33.3957 10.1772H36.2477C37.1752 8.71976 38.805 7.75251 40.6598 7.75251C43.5469 7.75251 45.8872 10.0932 45.8872 12.9785C45.8872 14.8051 44.9506 16.4115 43.5319 17.3463V21.0633C43.5319 21.2758 43.4421 21.4785 43.2845 21.6212L42.6222 22.2212L43.2841 22.8202C43.4419 22.9629 43.5318 23.1656 43.5319 23.3782C43.532 23.5909 43.4421 23.7937 43.2845 23.9365L42.6218 24.5368L43.2845 25.1372C43.4421 25.2799 43.5319 25.4826 43.5319 25.6952V26.4823C43.5319 26.6726 43.4598 26.8559 43.3301 26.9952L42.8229 27.5402V34.6779C42.8229 36.7495 41.1269 38.4455 39.0552 38.4455H29.3831V41.7291H33.2175C35.0856 41.7291 36.5408 43.0417 36.5408 44.5335V46.5876C36.5408 47.0034 36.2037 47.3406 35.7878 47.3406H9.15047C8.73466 47.3406 8.39753 47.0034 8.39753 46.5876V44.5335C8.39753 43.0417 9.85259 41.7291 11.7208 41.7291H15.5551V38.4455ZM11.5392 11.6831H5.88036C4.63668 11.6831 3.61861 12.7012 3.61861 13.9448V34.6779C3.61861 35.9215 4.63668 36.9396 5.88036 36.9396H39.0552C40.2989 36.9396 41.3171 35.9215 41.3171 34.6779V29.1579L41.2109 29.2719C41.0685 29.425 40.8688 29.5119 40.6596 29.5119C40.5339 29.5118 40.4117 29.4803 40.3031 29.422V32.6158C40.3031 33.0316 39.966 33.3687 39.5502 33.3687H5.38539C4.96958 33.3687 4.63245 33.0316 4.63245 32.6158V13.8703C4.63245 13.2229 5.15847 12.6996 5.80581 12.6996H11.5392V11.6831ZM27.8773 38.4455H17.061V41.7291H27.8773V38.4455ZM33.3965 11.6831V12.6996H35.4411C35.4596 12.3506 35.5122 12.0107 35.5957 11.6831H33.3965ZM31.5807 14.2055C31.3809 14.9011 31.1009 15.571 30.7485 16.2034L31.3245 17.5038C31.4505 17.7884 31.3886 18.1211 31.1685 18.3411L29.2221 20.2876C29.002 20.5076 28.6693 20.5696 28.3847 20.4436C28.3847 20.4436 27.0856 19.8682 27.0857 19.8681C26.4456 20.2264 25.7648 20.508 25.0585 20.7079L24.5485 22.033C24.4366 22.3237 24.1573 22.5155 23.8458 22.5155H21.0926C20.7811 22.5155 20.5017 22.3237 20.3898 22.033C20.3898 22.033 19.8799 20.708 19.88 20.708C19.1723 20.5077 18.4925 20.2248 17.8513 19.8676L16.5508 20.4436C16.2663 20.5696 15.9335 20.5076 15.7135 20.2876L13.7671 18.3411C13.5468 18.1208 13.4849 17.7875 13.6115 17.5028C13.6115 17.5028 14.189 16.2041 14.189 16.2042C13.8356 15.5727 13.5566 14.9016 13.3557 14.2055H6.13833V31.8628H11.9109L9.33438 29.2865L9.33381 29.286C8.59612 28.5467 8.22181 27.6383 8.2525 26.5946L8.50774 17.5694C8.52553 16.9442 8.91565 16.3336 9.49457 15.9785C10.0648 15.6287 10.793 15.5342 11.4359 15.8496C12.1292 16.19 12.8402 17.0955 12.8324 19.0622L12.8146 23.79C13.5608 23.2604 14.5893 23.3375 15.2948 23.974C15.3199 23.9966 15.3433 24.0208 15.3652 24.0466C16.4485 25.3266 17.8581 26.3791 18.6315 27.0763C19.5068 27.8648 19.7161 28.9525 19.7153 30.1311L19.7131 31.8628H25.2225L25.2203 30.1311C25.2195 28.9525 25.4288 27.8648 26.3042 27.0763C27.0775 26.3791 28.4871 25.3266 29.5704 24.0466C29.5923 24.0208 29.6158 23.9966 29.6408 23.974C30.3463 23.3375 31.3748 23.2604 32.121 23.79L32.1031 19.0623C32.0954 17.0955 32.8065 16.19 33.4997 15.8496C34.1426 15.5342 34.8708 15.6287 35.441 15.9785C36.02 16.3336 36.4101 16.9442 36.4278 17.5694L36.6831 26.5937C36.7138 27.6383 36.3395 28.5467 35.6019 29.286L35.6012 29.2865L33.0247 31.8628H38.7973V27.8621L37.9908 26.9951C37.8612 26.8558 37.7892 26.6725 37.7892 26.4823V17.3463C36.6987 16.6278 35.8931 15.5126 35.5786 14.2055H31.5807ZM26.7284 31.8628H30.895L34.536 28.2222C34.9705 27.7866 35.1959 27.2533 35.1779 26.638V26.6371L34.9226 17.6121C34.9184 17.4647 34.7902 17.3459 34.6537 17.2622C34.5166 17.1781 34.3471 17.1274 34.1901 17.1896C33.9754 17.2747 33.8327 17.5231 33.7284 17.9226C33.649 18.2261 33.6072 18.6008 33.609 19.0564L33.6276 23.9593C33.631 24.8254 33.3456 25.5656 32.8004 26.2378C32.7998 26.2384 32.7993 26.2391 32.7988 26.2398C32.7988 26.2398 32.4619 26.6521 32.4617 26.6524C32.4552 26.6604 32.4485 26.6682 32.4417 26.6759C32.4414 26.6762 32.4412 26.6765 32.4409 26.6767C31.7886 27.4114 31.0908 28.0396 30.365 28.7643C30.0709 29.0579 29.5938 29.0575 29.3001 28.7635C29.0065 28.4695 29.0068 27.9923 29.3009 27.6987C29.9963 27.0044 30.6667 26.4032 31.2928 25.7017C31.4546 25.4748 31.4812 25.2415 31.3061 25.066L31.3058 25.0658C31.1347 24.8943 30.8687 24.9178 30.68 25.0664C29.553 26.3837 28.1113 27.4746 27.3123 28.195L27.312 28.1951C26.7661 28.6869 26.7257 29.3949 26.7262 30.1298L26.7284 31.8628ZM14.0405 31.8628H18.2072L18.2094 30.1298C18.2099 29.3949 18.1695 28.6869 17.6236 28.1951L17.6233 28.195C16.8243 27.4746 15.3826 26.3837 14.2554 25.0663C14.0667 24.9178 13.8009 24.8944 13.6298 25.0658L13.6296 25.066C13.4544 25.2415 13.481 25.4748 13.6428 25.7017C14.2689 26.4032 14.9394 27.0044 15.6347 27.6987C15.9287 27.9923 15.9291 28.4695 15.6355 28.7635C15.3418 29.0575 14.8647 29.0579 14.5706 28.7643C13.8449 28.0396 13.1471 27.4114 12.4947 26.6767C12.4944 26.6765 12.4942 26.6762 12.4939 26.6759C12.4871 26.6682 12.4804 26.6604 12.4739 26.6524C12.4737 26.6521 12.1368 26.2398 12.1368 26.2398C12.1364 26.2391 12.1358 26.2384 12.1352 26.2378C11.5901 25.5656 11.3045 24.8254 11.308 23.9595L11.3267 19.0564C11.3333 17.3673 10.8101 16.9383 10.2819 17.2622C10.1454 17.3459 10.0172 17.4647 10.013 17.6121L9.75772 26.6371V26.638C9.73965 27.2533 9.96506 27.7866 10.3996 28.2222L14.0405 31.8628ZM23.7918 3.36973L23.3285 2.16409H21.6091L21.1434 3.37077C21.0541 3.6023 20.8565 3.77491 20.615 3.83223C19.7948 4.02714 19.0125 4.35129 18.2934 4.7943C18.0819 4.92474 17.8196 4.94225 17.5925 4.84136L16.4126 4.31665L15.1976 5.53171L15.7222 6.71157C15.8232 6.93867 15.8056 7.20089 15.6753 7.41246C15.2319 8.13209 14.9077 8.91505 14.71 9.73849C14.6522 9.97943 14.4795 10.1765 14.2484 10.2655L13.0451 10.7286V12.4479L14.2484 12.911C14.4794 12.9999 14.6519 13.1967 14.7099 13.4375C14.9075 14.2581 15.2314 15.0434 15.6746 15.7602C15.8055 15.9719 15.8234 16.2347 15.7222 16.4622L15.1976 17.642L16.4132 18.8575L17.5935 18.3347C17.8197 18.2345 18.0808 18.2519 18.2917 18.3811C19.0113 18.822 19.794 19.149 20.6173 19.3441C20.8592 19.4014 21.0572 19.5743 21.1464 19.8063L21.6096 21.0096H23.3288L23.792 19.8063C23.8811 19.5745 24.0789 19.4016 24.3205 19.3442C25.1405 19.1494 25.925 18.8256 26.6412 18.3828C26.8526 18.2521 27.1149 18.2341 27.3421 18.3347L28.5224 18.8575L29.7385 17.6415L29.2157 16.4611C29.1155 16.235 29.1328 15.9739 29.2621 15.7629C29.7029 15.0433 30.0301 14.2606 30.2252 13.4396C30.2826 13.198 30.4555 13.0002 30.6873 12.911L31.8906 12.4479V10.7286L30.6873 10.2655C30.4553 10.1762 30.2823 9.9782 30.2251 9.73641C30.0302 8.91364 29.7061 8.13143 29.2631 7.41246C29.133 7.20126 29.1152 6.93943 29.2157 6.71251L29.7385 5.53218L28.523 4.31665L27.343 4.84136C27.116 4.94225 26.8537 4.92474 26.6421 4.7943C25.9232 4.35129 25.1409 4.02714 24.3205 3.83223C24.0788 3.77481 23.8809 3.60173 23.7918 3.36973ZM22.4678 6.03166C25.5372 6.03166 28.0258 8.5175 28.0258 11.5869C28.0258 14.6561 25.537 17.1449 22.4678 17.1449C19.3985 17.1449 16.9125 14.6562 16.9125 11.5869C16.9125 8.5174 19.3983 6.03166 22.4678 6.03166ZM22.4678 7.53754C20.2304 7.53754 18.4184 9.3494 18.4184 11.5869C18.4184 13.8244 20.2303 15.639 22.4678 15.639C24.7055 15.639 26.5199 13.8245 26.5199 11.5869C26.5199 9.34931 24.7053 7.53754 22.4678 7.53754ZM40.66 27.6536L42.0261 26.186V26.029L40.9948 25.0948C40.8372 24.9521 40.7474 24.7494 40.7474 24.5368C40.7474 24.3243 40.8372 24.1215 40.9948 23.9788L41.6571 23.3789L40.9952 22.7799C40.8375 22.6372 40.7475 22.4345 40.7474 22.2219C40.7474 22.0092 40.8372 21.8063 40.9948 21.6636L42.0261 20.7294V16.9199C42.0261 16.6431 42.178 16.3886 42.4216 16.2572C43.5879 15.6283 44.3813 14.3967 44.3813 12.9785C44.3813 10.9245 42.7151 9.25839 40.6598 9.25839C38.6058 9.25839 36.9397 10.9246 36.9397 12.9785C36.9397 14.3967 37.7332 15.6283 38.8995 16.2572C39.1431 16.3886 39.295 16.6431 39.295 16.9199V26.1862L40.66 27.6536ZM38.5777 11.8974C38.5777 10.7461 39.5108 9.81378 40.6598 9.81378C41.8109 9.81378 42.7433 10.7463 42.7433 11.8974C42.7433 13.0463 41.8111 13.9794 40.6598 13.9794C39.5106 13.9794 38.5777 13.0466 38.5777 11.8974ZM40.0836 11.8974C40.0836 12.2154 40.3417 12.4735 40.6598 12.4735C40.9787 12.4735 41.2374 12.2157 41.2374 11.8974C41.2374 11.5782 40.979 11.3197 40.6598 11.3197C40.3415 11.3197 40.0836 11.5785 40.0836 11.8974ZM9.90341 45.8347H35.0349V44.5335C35.0349 43.7672 34.1771 43.235 33.2175 43.235H11.7208C10.7612 43.235 9.90341 43.7672 9.90341 44.5335V45.8347Z" fill="white"/>
</svg>
