<svg width="48" height="48" viewBox="0 0 48 48" fill="none" xmlns="http://www.w3.org/2000/svg">
<path id="Vector" d="M1.40985 47.461H8.73729C9.11483 47.461 9.42089 47.155 9.42089 46.7774V42.7204C9.84843 43.0795 10.4191 43.2672 11.0959 43.2672H11.5251V46.7774C11.5251 47.155 11.8311 47.461 12.2087 47.461H35.7912C36.1687 47.461 36.4748 47.155 36.4748 46.7774V43.2672H36.904C37.5777 43.2672 38.1474 43.0801 38.5763 42.7216V46.7775C38.5763 47.1551 38.8823 47.4611 39.2599 47.4611H46.5901C46.9677 47.4611 47.2737 47.1551 47.2737 46.7775V36.2942C47.2737 34.4046 45.7364 32.8674 43.8468 32.8674H41.7679C40.6111 32.8674 39.6755 33.2656 39.0611 34.02L35.5791 38.3125H31.8519V38.0826C31.8519 35.5046 29.6155 33.4072 26.8665 33.4072H21.1335C18.3846 33.4072 16.1481 35.5046 16.1481 38.0826V38.3125H12.4209L8.93798 34.019C8.3244 33.2656 7.38876 32.8674 6.23212 32.8674H4.15311C2.26346 32.8674 0.726257 34.4047 0.726257 36.2942V46.7775C0.726257 47.1551 1.03231 47.4611 1.40985 47.4611V47.461ZM35.1076 46.0938H12.8923V43.2672H35.1076V46.0938ZM35.9047 39.6795C36.1107 39.6795 36.3058 39.5865 36.4355 39.4266L40.1221 34.8821C40.4721 34.4523 41.0258 34.2344 41.7679 34.2344H43.8468C44.9825 34.2344 45.9065 35.1583 45.9065 36.294V46.0937H39.9434V41.0634L41.5485 39.0321C41.7825 38.7359 41.7322 38.306 41.436 38.072C41.1396 37.8378 40.7097 37.8883 40.4759 38.1845L38.7564 40.3605C38.7335 40.3855 38.7123 40.4123 38.6933 40.4406L37.808 41.5609C37.6298 41.7858 37.3257 41.8999 36.9043 41.8999H31.819C31.2084 41.8999 30.7116 41.4019 30.7116 40.7896C30.7116 40.1774 31.2084 39.6794 31.819 39.6794H35.905L35.9047 39.6795ZM21.1334 34.7742H26.8664C28.8615 34.7742 30.4847 36.2583 30.4847 38.0824V38.7048C29.7994 39.1458 29.3441 39.9153 29.3441 40.7896C29.3441 41.1887 29.4394 41.5656 29.6075 41.8999H18.392C18.5603 41.5657 18.6557 41.1888 18.6557 40.7896C18.6557 39.9158 18.2005 39.1468 17.5151 38.7056V38.0823C17.5151 36.2582 19.1383 34.7741 21.1333 34.7741L21.1334 34.7742ZM2.09335 36.294C2.09335 35.1583 3.01727 34.2344 4.15302 34.2344H6.23202C6.97401 34.2344 7.52772 34.4522 7.87694 34.8811L11.5642 39.4266C11.694 39.5865 11.8891 39.6795 12.0951 39.6795H16.1782C16.7904 39.6795 17.2885 40.1775 17.2885 40.7897C17.2885 41.402 16.7904 41.9 16.1782 41.9H11.0958C10.6729 41.9 10.3694 41.7866 10.1927 41.5618L7.52411 38.1846C7.29012 37.8884 6.86024 37.838 6.56395 38.0721C6.26776 38.3061 6.21737 38.736 6.45145 39.0322L8.0537 41.06V46.0938H2.09344V36.2941L2.09335 36.294ZM5.07489 32.4461C7.2911 32.4461 9.09423 30.6431 9.09423 28.4268C9.09423 26.2104 7.2912 24.4074 5.07489 24.4074C2.85858 24.4074 1.05555 26.2104 1.05555 28.4268C1.05555 30.6431 2.85858 32.4461 5.07489 32.4461ZM5.07489 25.7746C6.53729 25.7746 7.72704 26.9644 7.72704 28.4268C7.72704 29.8892 6.53729 31.0789 5.07489 31.0789C3.61249 31.0789 2.42274 29.8892 2.42274 28.4268C2.42274 26.9644 3.61249 25.7746 5.07489 25.7746ZM23.9985 24.4074C21.7823 24.4074 19.9792 26.2104 19.9792 28.4268C19.9792 30.6431 21.7822 32.4461 23.9985 32.4461C26.2148 32.4461 28.0179 30.6431 28.0179 28.4268C28.0179 26.2104 26.2148 24.4074 23.9985 24.4074ZM23.9985 31.0789C22.5361 31.0789 21.3464 29.8892 21.3464 28.4268C21.3464 26.9644 22.5361 25.7746 23.9985 25.7746C25.4609 25.7746 26.6507 26.9644 26.6507 28.4268C26.6507 29.8892 25.4609 31.0789 23.9985 31.0789ZM31.6056 18.2811H35.443L39.4721 21.7554C39.5986 21.8645 39.7577 21.9213 39.9185 21.9213C40.0149 21.9213 40.1121 21.9009 40.2032 21.8592C40.4462 21.7479 40.602 21.5051 40.602 21.2377V18.2812H44.0071C45.3106 18.2812 46.371 17.2207 46.371 15.9172V6.39443C46.371 5.09092 45.3106 4.03047 44.0071 4.03047H35.5888V2.67119C35.5888 1.19824 34.3904 0 32.9176 0H15.0818C13.6089 0 12.4106 1.19834 12.4106 2.67119V4.03047H3.99266C2.68915 4.03047 1.6287 5.09092 1.6287 6.39443V15.9172C1.6287 17.2207 2.68915 18.2812 3.99266 18.2812H7.39774V21.2377C7.39774 21.505 7.5536 21.7479 7.79657 21.8592C7.88768 21.901 7.98475 21.9213 8.08114 21.9213C8.24198 21.9213 8.40106 21.8645 8.52772 21.7554L12.5568 18.2811H16.3942C17.6977 18.2811 18.7582 17.2206 18.7582 15.9171V15.557H21.1078L23.4072 19.5236C23.5295 19.7345 23.7548 19.8644 23.9985 19.8644C24.2422 19.8644 24.4676 19.7347 24.5898 19.5239L26.892 15.557H29.2418V15.9171C29.2418 17.2206 30.3022 18.2811 31.6058 18.2811H31.6056ZM35.589 12.8859V5.39766H44.0073C44.5569 5.39766 45.004 5.84482 45.004 6.39443V15.9172C45.004 16.4668 44.5569 16.914 44.0073 16.914H39.9186C39.5411 16.914 39.235 17.22 39.235 17.5976V19.7457L36.1435 17.0799C36.0194 16.9729 35.861 16.914 35.6972 16.914H31.6058C31.0561 16.914 30.609 16.4668 30.609 15.9172V15.5571H32.9179C34.3908 15.5571 35.5891 14.3588 35.5891 12.8859H35.589ZM17.3909 15.9172C17.3909 16.4668 16.9437 16.914 16.3941 16.914H12.3027C12.1389 16.914 11.9805 16.9729 11.8563 17.0799L8.76483 19.7457V17.5976C8.76483 17.22 8.45878 16.914 8.08124 16.914H3.99257C3.44296 16.914 2.99579 16.4668 2.99579 15.9172V6.39443C2.99579 5.84482 3.44296 5.39766 3.99257 5.39766H12.4109V12.8859C12.4109 14.3588 13.6093 15.5571 15.0821 15.5571H17.391V15.9172H17.3909ZM26.4982 14.1899C26.2546 14.1899 26.0293 14.3196 25.907 14.5304L23.9988 17.8184L22.093 14.5306C21.9707 14.3196 21.7453 14.1898 21.5016 14.1898H15.082C14.363 14.1898 13.778 13.6049 13.778 12.8858V2.67129C13.778 1.95225 14.363 1.36729 15.082 1.36729H32.9178C33.6368 1.36729 34.2218 1.95225 34.2218 2.67129V12.886C34.2218 13.6051 33.6368 14.19 32.9178 14.19L26.4982 14.1899ZM42.9248 32.4461C45.141 32.4461 46.9441 30.6431 46.9441 28.4268C46.9441 26.2104 45.141 24.4074 42.9248 24.4074C40.7086 24.4074 38.9056 26.2104 38.9056 28.4268C38.9056 30.6431 40.7086 32.4461 42.9248 32.4461ZM42.9248 25.7746C44.3872 25.7746 45.5769 26.9644 45.5769 28.4268C45.5769 29.8892 44.3871 31.0789 42.9248 31.0789C41.4625 31.0789 40.2727 29.8892 40.2727 28.4268C40.2727 26.9644 41.4625 25.7746 42.9248 25.7746ZM31.6802 7.77851C31.6802 8.15605 31.3741 8.46211 30.9966 8.46211H17.0032C16.6257 8.46211 16.3196 8.15605 16.3196 7.77851C16.3196 7.40098 16.6257 7.09492 17.0032 7.09492H30.9966C31.3741 7.09492 31.6802 7.40098 31.6802 7.77851ZM16.3196 4.53691C16.3196 4.15937 16.6257 3.85332 17.0032 3.85332H19.1209C19.4984 3.85332 19.8045 4.15937 19.8045 4.53691C19.8045 4.91445 19.4984 5.22051 19.1209 5.22051H17.0032C16.6257 5.22051 16.3196 4.91445 16.3196 4.53691ZM31.6802 4.53691C31.6802 4.91445 31.3741 5.22051 30.9966 5.22051H21.7673C21.3897 5.22051 21.0837 4.91445 21.0837 4.53691C21.0837 4.15937 21.3897 3.85332 21.7673 3.85332H30.9966C31.3741 3.85332 31.6802 4.15937 31.6802 4.53691ZM31.6802 11.0173C31.6802 11.3948 31.3741 11.7009 30.9966 11.7009H17.0032C16.6257 11.7009 16.3196 11.3948 16.3196 11.0173C16.3196 10.6397 16.6257 10.3337 17.0032 10.3337H30.9966C31.3741 10.3337 31.6802 10.6397 31.6802 11.0173Z" fill="white"/>
</svg>
