<svg width="48" height="48" viewBox="0 0 48 48" fill="none" xmlns="http://www.w3.org/2000/svg">
<path d="M32.9591 37.9433C31.419 36.5505 29.5954 35.5497 27.6325 34.9961C29.7226 33.7524 31.1269 31.4715 31.1269 28.8678C31.1269 24.938 27.9298 21.7408 24 21.7408C20.0702 21.7408 16.8731 24.938 16.8731 28.8678C16.8731 31.4715 18.2774 33.7524 20.3675 34.9961C18.4045 35.5497 16.5809 36.5505 15.0407 37.9433C12.5996 40.1509 11.0631 43.1614 10.7144 46.4201C10.6918 46.6317 10.76 46.8429 10.9023 47.0012C11.0446 47.1594 11.2474 47.2499 11.4601 47.2499L36.5397 47.2498C36.7525 47.2498 36.9553 47.1594 37.0975 47.0011C37.2398 46.8428 37.3081 46.6316 37.2854 46.4199C36.9367 43.1613 35.4001 40.1509 32.9591 37.9433ZM18.3732 28.8678C18.3732 25.7651 20.8974 23.2408 24 23.2408C27.1028 23.2408 29.627 25.765 29.627 28.8678C29.627 31.9701 27.1035 34.4939 24.0014 34.4947C24.001 34.4947 24.0005 34.4947 24.0001 34.4947C23.9998 34.4947 23.9993 34.4947 23.9989 34.4947C20.8966 34.494 18.3732 31.9701 18.3732 28.8678ZM12.324 45.75C13.3243 40.1333 18.2033 35.9952 23.9988 35.9947H24C24 35.9947 24.0009 35.9947 24.0013 35.9947C29.7965 35.9952 34.6756 40.1333 35.676 45.7499L12.324 45.75ZM15.7439 8.238L19.5167 11.2703L18.2469 15.9412C18.1231 16.3966 18.2898 16.8701 18.6717 17.1475C18.8703 17.2919 19.1014 17.3644 19.3331 17.3644C19.5466 17.3644 19.7608 17.3027 19.9501 17.1787L24 14.5276L28.0499 17.1787C28.4446 17.4371 28.9465 17.4249 29.3285 17.1474C29.7103 16.8699 29.877 16.3964 29.753 15.9412L28.4832 11.2704L32.256 8.238C32.6238 7.94231 32.7672 7.46128 32.6213 7.01241C32.4754 6.56353 32.0766 6.25866 31.6053 6.23569L26.7706 6L25.0527 1.47488C24.8855 1.03453 24.4725 0.750094 24 0.75C24 0.75 24 0.75 24 0.75C23.5276 0.75 23.1145 1.03453 22.9472 1.47488L21.2293 6L16.3946 6.23569C15.9232 6.25866 15.5244 6.56363 15.3785 7.0125C15.2326 7.46138 15.3761 7.94241 15.7439 8.238ZM21.5466 7.48631C21.9939 7.46456 22.3856 7.18003 22.5447 6.76125L24 2.92819L25.4553 6.76144C25.6143 7.18003 26.0061 7.46456 26.4532 7.48631L30.5486 7.68591L27.3528 10.2545C27.0035 10.5352 26.854 10.9958 26.9716 11.4277L28.0472 15.3842L24.6166 13.1384C24.4294 13.0159 24.2148 12.9547 24.0001 12.9547C23.7855 12.9547 23.5708 13.016 23.3834 13.1385L19.953 15.3842L21.0285 11.4277C21.146 10.9957 20.9964 10.5352 20.6475 10.2546L17.4516 7.68591L21.5466 7.48631ZM11.9493 19.7123H6.04541C5.63122 19.7123 5.29541 19.3765 5.29541 18.9623C5.29541 18.5482 5.63122 18.2123 6.04541 18.2123H11.9494C12.3636 18.2123 12.6994 18.5482 12.6994 18.9623C12.6994 19.3765 12.3635 19.7123 11.9493 19.7123ZM7.80126 9.61013C8.00826 9.25134 8.46697 9.12844 8.82576 9.33563L13.9388 12.2876C14.2975 12.4947 14.4205 12.9534 14.2133 13.3121C14.0744 13.5527 13.8223 13.6872 13.563 13.6872C13.4358 13.6872 13.3069 13.6548 13.1888 13.5866L8.07576 10.6346C7.71707 10.4275 7.59407 9.96881 7.80126 9.61013ZM13.9388 25.6373L8.82576 28.5893C8.70763 28.6574 8.57863 28.6898 8.45151 28.6898C8.19219 28.6898 7.94019 28.5553 7.80126 28.3148C7.59407 27.9561 7.71707 27.4973 8.07576 27.2903L13.1888 24.3383C13.5478 24.1311 14.0063 24.2543 14.2133 24.6128C14.4205 24.9714 14.2975 25.4302 13.9388 25.6373ZM40.1986 28.3147C40.0597 28.5552 39.8075 28.6898 39.5483 28.6898C39.4211 28.6898 39.2922 28.6573 39.1741 28.5892L34.0611 25.6372C33.7024 25.4301 33.5794 24.9713 33.7866 24.6127C33.9937 24.254 34.4523 24.1309 34.8111 24.3382L39.9241 27.2902C40.2827 27.4973 40.4057 27.956 40.1986 28.3147ZM42.7045 18.9623C42.7045 19.3765 42.3687 19.7123 41.9545 19.7123H36.0506C35.6364 19.7123 35.3006 19.3765 35.3006 18.9623C35.3006 18.5482 35.6364 18.2123 36.0506 18.2123H41.9546C42.3687 18.2123 42.7045 18.5482 42.7045 18.9623ZM33.7866 13.312C33.5794 12.9533 33.7024 12.4946 34.0611 12.2875L39.1741 9.33553C39.533 9.12834 39.9916 9.25144 40.1986 9.61003C40.4057 9.96872 40.2827 10.4274 39.9241 10.6345L34.8111 13.5865C34.693 13.6547 34.564 13.6871 34.4369 13.6871C34.1776 13.6872 33.9256 13.5527 33.7866 13.312Z" fill="white"/>
</svg>
