<svg width="50" height="50" viewBox="0 0 50 50" fill="none" xmlns="http://www.w3.org/2000/svg">
<g id="talent-search 1" clip-path="url(#clip0_148_571)">
<g id="Group">
<g id="Group_2">
<path id="Vector" d="M27.0856 41.8867C27.4902 41.8867 27.818 41.5589 27.818 41.1543C27.818 40.7497 27.4902 40.4219 27.0856 40.4219H22.4186C22.014 40.4219 21.6862 40.7497 21.6862 41.1543C21.6862 41.5589 22.014 41.8867 22.4186 41.8867H27.0856Z" fill="white"/>
<path id="Vector_2" d="M19.0868 44.4238C19.0868 44.8284 19.4146 45.1562 19.8192 45.1562H30.0225C30.4271 45.1562 30.755 44.8284 30.755 44.4238C30.755 44.0192 30.4271 43.6914 30.0225 43.6914H19.8192C19.4147 43.6914 19.0868 44.0193 19.0868 44.4238Z" fill="white"/>
<path id="Vector_3" d="M48.9469 42.1988L43.4711 36.3907C43.0061 35.8981 42.4403 35.5569 41.8357 35.3675V25.0452C42.2573 23.5396 42.4835 21.9531 42.4835 20.3147C42.4835 18.6764 42.2574 17.0898 41.8357 15.5843V0.732422C41.8357 0.327832 41.5078 0 41.1032 0H17.4386C17.034 0 16.7062 0.327832 16.7062 0.732422C16.7062 1.13701 17.034 1.46484 17.4386 1.46484H40.3709V11.9693C37.3964 6.48438 31.5865 2.75156 24.9208 2.75156C18.2531 2.75156 12.4415 6.48682 9.468 11.9746V1.46484H13.9923C14.3969 1.46484 14.7247 1.13701 14.7247 0.732422C14.7247 0.327832 14.3969 0 13.9923 0H8.73557C8.33098 0 8.00315 0.327832 8.00315 0.732422V15.5948C7.58343 17.0974 7.35823 18.6802 7.35823 20.3147C7.35823 21.9493 7.58352 23.5321 8.00315 25.0347V34.022C7.87093 34.1041 7.74671 34.2083 7.63421 34.3336C7.62825 34.34 7.62259 34.3468 7.61692 34.3534L4.98919 37.501L1.03274 38.8903C1.02122 38.8943 1.00989 38.8987 0.998464 38.9033C0.544167 39.0889 0.218093 39.4238 0.0804953 39.8465C-0.0550516 40.2626 0.00656946 40.7122 0.253835 41.1124C0.259304 41.1213 0.264968 41.1301 0.270925 41.1388L1.30618 42.6641C1.30667 42.6648 1.30716 42.6655 1.30764 42.6661L2.57825 44.524L2.6721 46.9105L2.71907 48.5383C2.71946 48.5508 2.72014 48.5634 2.72112 48.5759C2.75833 49.0381 2.96966 49.4361 3.31624 49.6965C3.58206 49.8963 3.90354 49.9997 4.24592 49.9997C4.3637 49.9997 4.48401 49.9875 4.6054 49.9627C4.61468 49.9607 4.62385 49.9587 4.63303 49.9564L8.73557 48.9501L12.8408 49.9564C12.8497 49.9586 12.8587 49.9607 12.8677 49.9625C13.3389 50.0595 13.795 49.9657 14.1521 49.699C14.4293 49.4921 14.6192 49.1964 14.7055 48.8509H31.8689C32.2735 48.8509 32.6013 48.523 32.6013 48.1185C32.6013 47.7139 32.2735 47.386 31.8689 47.386H14.7881L14.8016 46.9174L14.8931 44.5242L16.2791 42.505L17.2037 41.1375C17.2094 41.1292 17.2148 41.1208 17.22 41.1122C17.4675 40.7118 17.5288 40.2622 17.3929 39.8461C17.2547 39.4229 16.9274 39.0879 16.4713 38.9026C16.4606 38.8982 16.4496 38.8941 16.4387 38.8902L12.4822 37.5008L9.85696 34.3532C9.85071 34.3458 9.84426 34.3385 9.83772 34.3312C9.72473 34.2063 9.60022 34.1025 9.4679 34.0208V28.6545C12.4414 34.1423 18.2531 37.8775 24.9207 37.8775C28.8061 37.8775 32.4 36.6085 35.3119 34.4643L37.5723 36.7828C37.1296 37.397 36.8794 38.1306 36.8567 38.908C36.8266 39.9346 37.196 40.9086 37.8963 41.6504L39.5851 43.4416L39.5852 43.4417L39.5961 43.4532L40.3708 44.275V47.3858H35.3151C34.9105 47.3858 34.5826 47.7137 34.5826 48.1183C34.5826 48.5229 34.9105 48.8507 35.3151 48.8507H41.1032C41.5078 48.8507 41.8357 48.5229 41.8357 48.1183V45.8291L43.3721 47.4588C44.1244 48.2557 45.1408 48.6579 46.1599 48.6579C47.1037 48.6578 48.0498 48.3126 48.7895 47.6158C50.3264 46.1646 50.3969 43.7345 48.9469 42.1988ZM11.4865 38.5942C11.5711 38.6959 11.6818 38.7727 11.8066 38.8164L15.9323 40.2652C15.9797 40.281 15.9889 40.3234 15.9657 40.3535L15.0687 41.6805L13.5657 43.8702C13.4873 43.9844 13.4429 44.1184 13.4376 44.2566L13.3377 46.8684L13.2914 48.4695C13.2867 48.5051 13.2535 48.559 13.1725 48.5297L8.90999 47.4848C8.79524 47.4566 8.67552 47.4567 8.56096 47.4848L4.30188 48.5296C4.23704 48.5412 4.18684 48.5061 4.18255 48.4718L4.13596 46.8606L4.03352 44.2558C4.02805 44.1182 3.98401 43.9849 3.90618 43.8712L2.51731 41.8403L1.49426 40.3331C1.48655 40.3194 1.47835 40.2826 1.53938 40.2649L5.66468 38.8163C5.78919 38.7727 5.89964 38.6961 5.98421 38.5946L8.73098 35.3046C8.73303 35.3025 8.74143 35.3033 8.74397 35.306L11.4865 38.5942ZM24.9208 36.4131C16.0445 36.4131 8.82298 29.1914 8.82298 20.3147C8.82298 11.4381 16.0444 4.21641 24.9208 4.21641C33.7973 4.21641 41.0188 11.4381 41.0188 20.3147C41.0188 29.1914 33.7972 36.4131 24.9208 36.4131ZM36.46 33.5438C38.0365 32.1668 39.3657 30.5138 40.3709 28.6602V35.2037C39.7666 35.2525 39.1714 35.4437 38.6398 35.7795L36.46 33.5438ZM40.1482 41.9037L38.9619 40.6455C38.53 40.188 38.3024 39.5863 38.3211 38.9513C38.3397 38.3167 38.6017 37.7301 39.059 37.2993L39.0596 37.2987C39.5159 36.868 40.0998 36.6544 40.683 36.6544C41.3123 36.6544 41.9407 36.9032 42.4059 37.3959L43.5922 38.6543L40.1482 41.9037ZM41.1534 42.9692L44.5969 39.7202L45.6902 40.8799L42.2463 44.1271L41.1534 42.9692ZM47.7845 46.5502C46.8344 47.4451 45.3328 47.4016 44.4376 46.4536L43.2501 45.1939L46.6951 41.9456L47.8816 43.204C48.7773 44.1528 48.7335 45.6542 47.7845 46.5502Z" fill="white"/>
<path id="Vector_4" d="M24.9208 6.38672C17.2408 6.38672 10.9928 12.6351 10.9928 20.3151C10.9928 27.9952 17.2408 34.2436 24.9208 34.2436C32.6009 34.2436 38.8489 27.9952 38.8489 20.3151C38.8489 12.6351 32.6009 6.38672 24.9208 6.38672ZM22.3504 32.5116C20.107 32.0394 18.0843 30.9614 16.4608 29.4582C16.6694 27.55 17.9999 25.9485 19.7566 25.3235L21.1986 29.165C21.2775 29.375 21.4482 29.5373 21.6618 29.6055C21.7346 29.6287 21.8096 29.64 21.8842 29.64C22.0287 29.64 22.172 29.5973 22.2946 29.5143L22.3503 29.4766L22.3504 32.5116ZM22.2434 27.7804L21.217 25.0462C21.2714 25.0443 21.9081 25.0421 21.9081 25.0421L23.7493 26.7618L22.2434 27.7804ZM24.7037 15.926C25.3228 16.0294 25.9345 16.0807 26.5335 16.0807C27.4892 16.0807 28.4115 15.9492 29.2759 15.6906C29.0915 20.1192 26.9335 22.1461 24.9209 22.1461C22.8164 22.1461 20.5516 19.9323 20.5516 15.0721C20.5516 14.8447 20.5692 14.6215 20.6028 14.4035C21.8116 15.149 23.233 15.6806 24.7037 15.926ZM21.0893 12.9745C21.8327 11.6218 23.2713 10.7026 24.9208 10.7026C27.0228 10.7026 28.7824 12.1947 29.1973 14.1754C26.4281 15.159 23.1901 14.38 21.0893 12.9745ZM26.9122 23.1513V23.9915L24.9208 25.8515L22.9295 23.9915V23.1513C23.5767 23.4587 24.2547 23.6109 24.9209 23.6109C25.5871 23.6109 26.2651 23.4587 26.9122 23.1513ZM26.0265 32.7291C25.662 32.7613 25.2935 32.7787 24.9208 32.7787C24.5482 32.7787 24.1796 32.7613 23.8153 32.7291V28.4857L24.9206 27.7381L26.0266 28.4868V32.7291H26.0265ZM27.9335 25.0421C27.9335 25.0421 28.5699 25.0443 28.6241 25.0462L27.5962 27.7804L26.092 26.7619L27.9335 25.0421ZM27.4913 32.5116V29.4785L27.5441 29.5143C27.6667 29.5973 27.8101 29.6401 27.9547 29.6401C28.0293 29.6401 28.1041 29.6288 28.1767 29.6057C28.3905 29.5376 28.5613 29.3755 28.6403 29.1654L30.0847 25.3238C31.8398 25.9491 33.1702 27.5504 33.3807 29.4584C31.7572 30.9615 29.7346 32.0394 27.4913 32.5116ZM34.6048 28.1514C34.2908 27.1068 33.7117 26.152 32.9042 25.3744C31.7005 24.2155 30.1226 23.5772 28.4613 23.5772H28.3771V22.1141C29.7575 20.7529 30.7549 18.4398 30.7549 15.0721C30.7549 11.8551 28.1378 9.23789 24.9207 9.23789C21.7038 9.23789 19.0866 11.8551 19.0866 15.0721C19.0866 18.4398 20.084 20.7529 21.4645 22.1141V23.5772H21.3803C19.7188 23.5772 18.1406 24.2154 16.9365 25.3743C16.1286 26.1519 15.5496 27.1064 15.2361 28.1505C13.4994 26.0083 12.4574 23.2813 12.4574 20.3151C12.4574 13.4427 18.0484 7.85156 24.9207 7.85156C31.7931 7.85156 37.3841 13.4427 37.3841 20.3151C37.3841 23.2817 36.3418 26.0091 34.6048 28.1514Z" fill="white"/>
</g>
</g>
</g>
<defs>
<clipPath id="clip0_148_571">
<rect width="50" height="50" fill="white"/>
</clipPath>
</defs>
</svg>
