<svg width="344" height="9" viewBox="0 0 344 9" fill="none" xmlns="http://www.w3.org/2000/svg">
<mask id="mask0_148_284" style="mask-type:alpha" maskUnits="userSpaceOnUse" x="0" y="0" width="344" height="9">
<rect width="344" height="8.44675" fill="#C4C4C4"/>
</mask>
<g mask="url(#mask0_148_284)">
<path d="M51.6699 -1.7863L52.5106 -1.89764L50.8746 -2.05727L51.6588 -2.17411C52.4453 -2.17305 53.4642 -1.99796 54.0186 -2.09099C54.0864 -2.18106 53.2301 -2.20997 53.0115 -2.28174C52.8182 -2.35529 52.6604 -2.42837 52.54 -2.50009C52.9683 -2.49932 53.4391 -2.48197 53.9246 -2.44907C54.5776 -2.39533 55.2181 -2.3692 55.7754 -2.37358C56.9151 -2.35906 58.016 -2.37354 59.2551 -2.37035L58.8428 -2.58713L60.4397 -2.53642C60.6089 -2.5199 60.8106 -2.54646 60.977 -2.52603C62.3608 -2.35317 62.9464 -2.44736 63.6108 -2.52547C63.747 -2.54568 63.9111 -2.56077 64.0987 -2.57034C65.9448 -2.52893 67.6095 -2.28664 69.2721 -2.16225C69.585 -2.1305 69.8851 -2.08973 70.1512 -2.04285C70.7295 -1.95171 71.3727 -1.8773 72.0221 -1.82642C72.6715 -1.77555 73.3062 -1.74984 73.8683 -1.75163C75.1113 -1.75365 76.5157 -1.69336 77.9454 -1.57662C78.3706 -1.53817 78.7961 -1.5128 79.1947 -1.50214C79.5933 -1.49147 79.9564 -1.49574 80.2606 -1.51467L81.2272 -1.39093C81.6463 -1.44114 82.1776 -1.46869 82.789 -1.4719C83.4004 -1.47512 84.079 -1.45393 84.7839 -1.40963C85.5349 -1.36156 86.2978 -1.32916 87.0771 -1.27835C88.6869 -1.1812 90.2536 -1.12179 91.7284 -1.10196C93.9248 -1.04319 96.0708 -0.997752 98.2866 -0.924482C99.6727 -0.889115 101.023 -0.869663 102.33 -0.866227C103.896 -0.852394 105.589 -0.785424 107.329 -0.668554C107.246 -0.558901 106.484 -0.591295 105.972 -0.595006C104.32 -0.613231 102.63 -0.660458 100.931 -0.695937C100.165 -0.709785 99.4207 -0.715031 98.7016 -0.711634C97.4996 -0.71618 96.2325 -0.745397 94.9219 -0.798787C92.8515 -0.857533 90.8472 -0.885772 88.9296 -0.883215C88.7793 -0.878872 88.6416 -0.871177 88.5187 -0.860255C88.4931 -0.850796 88.488 -0.838867 88.504 -0.825616C88.52 -0.812366 88.5566 -0.79823 88.6101 -0.784569C88.6636 -0.770908 88.7324 -0.758179 88.8098 -0.747597C88.8872 -0.737014 88.9707 -0.728931 89.0522 -0.724127C89.8139 -0.649816 90.6319 -0.570004 91.3501 -0.558776C91.3779 -0.557937 91.4074 -0.556021 91.4367 -0.553165C91.466 -0.550309 91.4942 -0.546585 91.5193 -0.542263C93.1272 -0.385384 94.4492 -0.411931 95.7017 -0.386408C97.7812 -0.317426 99.7857 -0.285204 101.685 -0.290229C101.972 -0.289888 102.282 -0.280921 102.604 -0.263651C104.593 -0.19365 106.453 -0.18582 108.097 -0.240517C108.774 -0.254375 109.402 -0.285483 110.13 -0.286004C110.577 -0.288145 110.967 -0.307996 111.276 -0.34437C111.584 -0.380744 111.804 -0.432888 111.924 -0.497667C112.231 -0.463562 112.542 -0.433167 112.855 -0.406845C113.041 -0.391795 113.22 -0.387798 113.356 -0.395673C113.491 -0.403549 113.572 -0.422709 113.583 -0.449277C113.639 -0.523685 113.213 -0.561051 112.843 -0.592914C113.066 -0.608872 113.317 -0.61826 113.591 -0.620851C115.131 -0.637853 116.784 -0.617785 118.512 -0.561091C119.854 -0.49323 120.925 -0.548465 122.336 -0.452765C122.506 -0.436252 122.645 -0.460489 122.801 -0.466309C123.207 -0.496955 123.713 -0.503844 124.275 -0.486372C124.837 -0.468899 125.438 -0.427593 126.026 -0.366036C126.758 -0.534212 128.339 -0.342087 129.507 -0.32482C129.866 -0.239294 129.454 -0.25433 129.436 -0.230833C129.418 -0.207336 129.436 -0.230837 129.295 -0.244599C128.129 -0.123479 126.532 -0.097069 124.727 -0.169079C124.393 -0.16878 124.075 -0.163262 123.776 -0.15258C123.322 -0.137458 122.812 -0.138968 122.265 -0.157043C121.668 -0.170318 121.12 -0.164012 120.646 -0.138433C120.374 -0.138849 120.144 -0.126035 119.977 -0.10117C119.81 -0.0763037 119.712 -0.0401924 119.692 0.00380808C119.873 0.0377282 120.075 0.0687657 120.289 0.0956888C121.404 0.201989 122.515 0.24599 123.405 0.219033C124.954 0.172586 126.797 0.217911 128.444 0.202055C129.558 0.195631 130.742 0.213928 131.976 0.256604C131.976 0.256604 131.944 0.299682 131.941 0.303598C132.087 0.322249 132.24 0.337214 132.392 0.347635C132.392 0.347635 132.392 0.347636 132.407 0.328054C132.339 0.309251 132.248 0.291561 132.142 0.277034L131.776 0.241253C132.025 0.231942 132.258 0.20422 132.518 0.221158C133.065 0.252626 133.588 0.265911 134.055 0.260224C134.523 0.254536 134.925 0.229989 135.237 0.188058C135.791 0.134318 136.48 0.109879 137.259 0.11632C137.857 0.110452 138.432 0.0978423 138.983 0.0785523C138.983 0.0785523 139.019 0.0315627 139.28 0.00658706C139.033 -0.0242173 138.775 -0.0493718 138.518 -0.0677212C137.402 -0.113565 136.283 -0.155493 135.186 -0.186836C134.782 -0.190222 134.403 -0.18497 134.054 -0.171184C133.089 -0.155051 132.005 -0.177948 130.865 -0.238541C130.865 -0.238541 130.639 -0.260558 130.527 -0.271567C130.847 -0.374866 131.95 -0.271451 132.396 -0.341408C132.667 -0.340135 133.145 -0.331337 133.129 -0.349754C133.092 -0.374331 133.087 -0.397161 133.116 -0.41661C133.144 -0.436058 133.205 -0.451642 133.294 -0.462243C133.383 -0.472845 133.498 -0.478204 133.631 -0.477932C133.763 -0.477659 133.91 -0.471761 134.06 -0.460667C135.316 -0.40065 136.498 -0.383959 137.535 -0.411619C137.929 -0.411085 138.37 -0.393297 138.76 -0.388846C138.999 -0.383487 139.217 -0.386468 139.402 -0.397626C140.345 -0.4798 141.614 -0.4858 143.018 -0.414728C143.697 -0.389174 144.331 -0.385758 144.888 -0.404651C145.284 -0.408034 145.452 -0.349609 145.734 -0.322087L146.932 -0.264068L145.394 -0.19137C145.722 -0.0247689 145.984 0.0301653 146.521 0.0405433C147.305 0.0562181 148.068 0.0632998 148.806 0.0617441C149.352 0.0603735 149.803 0.0244954 150.543 0.0882218C150.673 0.0986155 150.799 0.10198 150.899 0.09775C151.764 0.0411758 152.807 0.0281905 153.955 0.0596846C154.55 -0.0462579 155.562 0.0567449 156.499 0.139737C156.801 0.0599362 156.254 0.0233041 155.927 -0.0253875C156.71 -0.0204036 157.5 -0.0232506 158.308 -0.0115971C158.552 -0.0158404 158.83 -0.00858319 159.121 0.00959998C159.412 0.0277846 159.708 0.0563987 159.986 0.0932041C160.121 0.116987 160.284 0.134885 160.442 0.143184C160.599 0.151482 160.738 0.149546 160.83 0.137777C161.25 0.103065 161.922 0.135037 162.269 0.0764033C162.393 0.0629177 162.569 0.0610362 162.767 0.0710851C162.964 0.0811325 163.171 0.102464 163.348 0.131251C163.154 0.140232 162.98 0.154375 162.832 0.173368C162.301 0.235068 162.496 0.338162 163.171 0.488046C164.206 0.479802 165.264 0.482143 166.224 0.453895C166.759 0.428536 167.415 0.436464 168.117 0.476786C168.82 0.517108 169.541 0.588225 170.201 0.682141C170.439 0.718255 170.711 0.743266 170.963 0.752211C171.214 0.761157 171.426 0.753379 171.557 0.730419C171.639 0.703865 171.664 0.67026 171.631 0.632515L170.954 0.566463C170.954 0.566463 170.98 0.531217 170.986 0.523385L171.96 0.517464C172.475 0.517258 173.012 0.527639 173.498 0.524682C174.213 0.505012 175.03 0.515976 175.897 0.556893C176.696 0.598849 177.482 0.630562 178.248 0.651755C178.988 0.673567 179.525 0.604029 180.23 0.592925C180.762 0.584554 181.349 0.5935 181.966 0.619412C183.032 0.665368 184.01 0.665453 184.812 0.619658C185.747 0.866391 186.201 0.906508 187.068 0.839836L187.476 0.820792L187.588 0.873711L187.9 0.862074C188.483 0.851708 189.066 0.841347 189.674 0.837651C190.52 0.860549 191.433 0.922152 192.325 1.01645C192.494 1.03296 192.725 1.08907 192.873 1.13299C193.022 1.17692 193.346 1.30944 193.584 1.3957C193.325 1.45867 193.037 1.51889 192.831 1.59129C192.811 1.60366 192.813 1.6184 192.837 1.63435C192.862 1.65029 192.908 1.66698 192.973 1.68308C193.037 1.69918 193.118 1.71424 193.208 1.72705C193.299 1.73986 193.397 1.75006 193.494 1.75684C193.684 1.77144 193.871 1.78117 194.048 1.78563C194.919 1.79333 195.754 1.78761 196.543 1.76852C196.832 1.74159 197.226 1.73903 197.665 1.76125C198.104 1.78348 198.561 1.82922 198.964 1.89122C199.997 1.854 201.198 1.86499 202.483 1.92344C203.842 1.88789 205.483 1.95978 206.753 1.88189C206.723 1.92106 206.854 1.98848 207.037 2.02733C207.326 2.08633 207.653 2.14102 208.005 2.18906L210.69 2.28288C210.791 2.33111 210.916 2.37994 211.065 2.42873C211.167 2.46727 211.345 2.50498 211.56 2.53387C211.776 2.56276 212.013 2.58056 212.22 2.58349C212.755 2.59779 213.202 2.56583 213.84 2.64479C212.859 2.71944 211.535 2.70952 210.106 2.61681C208.763 2.5463 207.471 2.51105 206.279 2.5124C205.885 2.51186 205.367 2.51598 205.245 2.55863C204.972 2.67919 204.26 2.66013 203.429 2.63789C202.776 2.61355 202.18 2.61628 201.689 2.64586C201.198 2.67545 200.827 2.73103 200.606 2.80805C200.55 2.88246 200.684 2.94597 201.257 2.98926L203.639 3.16288C203.991 3.14056 204.324 3.11414 204.638 3.08372C205.166 3.04333 205.819 3.03224 206.545 3.05132C207.271 3.0704 208.051 3.11914 208.824 3.19374C209.219 3.23228 209.614 3.27081 209.9 3.2525C210.152 3.23147 210.383 3.20629 210.593 3.17714C210.635 3.15761 210.652 3.13513 210.643 3.11057C210.795 3.12199 210.947 3.13684 211.094 3.15461C212.271 3.36186 213.182 3.35827 214.009 3.30452C214.233 3.28854 214.404 3.26314 214.631 3.24324C214.858 3.22335 214.938 3.19752 215.144 3.20504C216.788 3.27301 217.262 3.04598 218.648 3.0551C218.716 3.04623 218.757 3.03297 218.77 3.01655C218.782 3.00012 218.765 2.98106 218.719 2.96111C218.621 2.9431 218.507 2.92761 218.389 2.91607C218.271 2.90453 218.151 2.8973 218.042 2.89506C217.404 2.86593 216.84 2.87486 216.448 2.92033C216.17 2.93892 215.876 2.95372 215.567 2.96467L214.179 2.6359C215.524 2.66604 216.795 2.66584 217.964 2.63531C218.22 2.61817 218.652 2.64771 219.011 2.65332L221.652 2.68405C222.195 2.6866 222.658 2.63506 223.415 2.7552C223.415 2.7552 223.915 2.77457 224.049 2.75817C224.182 2.74176 224.774 2.63974 225.127 2.57327C225.536 2.59222 226.103 2.64336 226.359 2.62621C226.804 2.5841 227.19 2.53012 227.509 2.46524L229.105 2.55787C229.103 2.64015 229.045 2.71756 228.931 2.78892C228.807 2.85774 228.811 2.94035 228.943 3.02999C229.076 3.11964 229.333 3.21377 229.694 3.30471L231.269 3.78632C231.526 3.81857 231.8 3.84027 232.054 3.8485C232.308 3.85672 232.529 3.85105 232.688 3.83226C233.366 3.77649 234.125 3.73289 234.803 3.67712C235.677 3.76245 235.453 3.90025 236.088 4.02113L238.148 4.22204C238.462 4.40823 238.782 4.58658 237.826 4.64891C237.637 4.65981 237.765 4.73115 237.591 4.76047C238.334 4.90019 239.15 4.94201 239.903 5.02807C240.2 5.08996 240.448 5.15548 240.635 5.22145C240.842 5.32078 241.259 5.42226 241.798 5.50395C242.337 5.58565 242.954 5.64101 243.517 5.65809C244.459 5.71039 245.425 5.78895 246.37 5.89024C246.693 5.92546 247.024 5.95112 247.342 5.96549C247.661 5.97986 247.958 5.98261 248.215 5.97356C249.129 5.95761 249.902 5.90276 250.485 5.81259C251.062 5.73607 251.839 5.6992 252.746 5.7053C254.298 5.85667 254.611 6.08477 255.55 6.28567L253.928 6.3082C253.869 6.38652 253.976 6.48527 253.311 6.48347C252.647 6.48166 252.984 6.5566 253.2 6.63228C253.275 6.67035 253.424 6.70951 253.619 6.74313C253.815 6.77675 254.045 6.80277 254.272 6.81678L255.652 6.91364C256.142 6.95051 256.616 6.96625 257.022 6.95914C257.428 6.95203 257.75 6.92235 257.954 6.87334C258.187 6.82682 258.51 6.79534 258.901 6.78085C259.4 6.74289 259.811 6.68644 260.117 6.61363L262.066 6.71971C262.149 6.64654 262.417 6.59524 262.824 6.57448C263.231 6.55371 263.753 6.56475 264.301 6.60574L265.615 6.67086C267.076 6.7419 267.396 6.71851 267.824 6.51223L266.072 6.14376C266.327 6.04671 266.573 5.9614 266.818 5.87609C266.382 5.7547 265.8 5.63988 265.131 5.5433C264.507 5.43952 263.865 5.33902 263.208 5.24216C262.495 5.14318 261.742 5.05712 260.857 4.94555C260.703 4.90946 260.478 4.84552 260.192 4.78392C259.905 4.72406 259.605 4.66537 259.294 4.6081C259.353 4.52978 259.406 4.45929 259.293 4.36837C259.838 4.39738 260.401 4.44812 260.932 4.51602C261.462 4.58391 261.943 4.66682 262.331 4.75728C262.396 4.77332 262.476 4.78839 262.566 4.80146C262.655 4.81454 262.752 4.82532 262.849 4.83307C263.807 4.88865 264.264 5.00476 264.733 5.14712C265.048 5.2199 265.454 5.28453 265.896 5.33204C266.742 5.41461 267.57 5.52068 268.38 5.61224C268.627 5.64276 268.885 5.66787 269.141 5.68655C269.987 5.74595 270.838 5.82901 271.652 5.93151C271.917 5.95756 272.172 5.99203 272.395 6.03204C272.617 6.07206 272.802 6.11645 272.932 6.16151C272.731 6.21089 272.622 6.27321 272.612 6.34473C272.577 6.39172 273.171 6.48752 273.452 6.55696C273.733 6.62639 273.182 6.59368 272.995 6.60066C272.228 6.61409 272.086 6.64225 272.545 6.79636C272.699 6.84482 272.801 6.89331 272.844 6.93881C272.888 6.98431 272.873 7.02586 272.8 7.06087C272.691 7.20577 272.36 7.32473 272.132 7.46646C272.486 7.55981 273.077 7.65952 273.141 7.7751C273.172 7.80074 273.238 7.82791 273.333 7.85463C273.428 7.88136 273.55 7.90698 273.691 7.92964C274.062 7.97855 274.4 8.03706 274.678 8.1006C274.956 8.16415 275.166 8.23104 275.293 8.29609C275.334 8.32299 275.434 8.35154 275.573 8.376C275.712 8.40046 275.879 8.41904 276.041 8.42798C276.235 8.43898 276.408 8.43753 276.526 8.42394C276.643 8.41034 276.695 8.38564 276.671 8.35495C276.676 8.2973 276.651 8.23718 276.595 8.17513C276.627 8.13205 276.66 8.08898 276.532 8.01763C277.11 8.04367 277.717 8.09584 278.287 8.1685C278.857 8.24115 279.368 8.3315 279.764 8.42972C280.203 8.53133 280.607 8.63803 281.093 8.7569C280.992 8.89005 280.992 8.89005 282.027 9.12546L287.511 9.24026L288.636 9.39618C289.684 9.53209 289.933 9.52278 290.592 9.45251L291.035 9.38646C291.966 9.47729 293.038 9.58188 293.62 9.41169C293.809 9.52262 293.932 9.55988 293.889 9.5767C293.611 9.7404 293.129 9.8793 292.46 9.98789C292.289 10.0133 292.169 10.052 291.97 10.0747C291.33 10.2025 291.181 10.4 291.555 10.6269C291.741 10.7272 292.01 10.83 292.355 10.9319C291.85 11.0733 291.182 11.1904 290.367 11.2802C289.676 11.3497 289.107 11.4427 288.676 11.5565C288.289 11.6714 287.709 11.7577 286.971 11.8105C286.596 11.833 286.322 11.8774 286.177 11.9391C286.134 12.1064 286.233 12.2855 286.473 12.4724C286.518 12.5293 286.646 12.5907 286.847 12.6519C287.047 12.713 287.316 12.7723 287.631 12.825C287.631 12.825 287.782 12.865 287.855 12.8889C287.916 13.0914 287.688 13.2699 287.189 13.4124C287.107 13.4528 286.939 13.482 286.704 13.4968C286.469 13.5116 286.175 13.5115 285.854 13.4965C285.175 13.4724 284.542 13.4694 283.886 13.4558C283.179 13.4367 282.556 13.4518 282.084 13.4996C281.611 13.5474 281.305 13.6261 281.199 13.7275C281.192 13.7562 281.171 13.7837 281.137 13.8097C281.117 13.8232 281.106 13.8376 281.104 13.8528L282.611 14.1848L280.907 14.3169C280.806 14.4501 281.624 14.5299 282.035 14.6288L281.781 14.6839C281.455 14.7151 281.015 14.6554 280.617 14.6208L280.222 14.5823L280.175 14.6449C279.929 14.7302 279.033 14.6343 278.683 14.6969C278.333 14.7594 278.583 14.83 279.107 14.898C279.471 14.9485 279.863 14.9888 280.251 15.0158C280.64 15.0428 281.016 15.0559 281.351 15.0539C281.551 15.0472 281.717 15.032 281.839 15.0091C282.547 14.9115 283.328 14.8276 284.178 14.758C284.829 14.6955 285.645 14.669 286.568 14.6802C286.839 14.6755 287.165 14.6902 287.49 14.722C287.815 14.7537 288.118 14.8003 288.345 14.8536L288.823 14.8623C288.823 14.8623 289.084 14.9173 289.047 14.9263C288.865 15.089 289.077 15.288 289.65 15.4937L289.151 15.5123C288.439 15.4933 288.891 15.6172 288.784 15.6783C288.278 15.6667 287.621 15.6152 287.381 15.6927L287.022 15.6871L287.163 15.7008L287.333 15.6754L288.003 15.7912C287.686 15.8107 287.456 15.8345 287.175 15.845C287.02 15.8541 286.897 15.8702 286.813 15.8923C286.729 15.9144 286.685 15.9421 286.685 15.9737C286.686 16.0223 286.602 16.0632 286.442 16.0924C286.282 16.1217 286.052 16.1384 285.772 16.141C285.438 16.1421 285.247 16.1949 285.051 16.2136L285.901 16.532C285.901 16.532 285.478 16.4907 285.709 16.5468L285.738 16.5076L286.253 16.5874C286.625 16.6572 286.885 16.6741 287.104 16.6241C287.323 16.574 287.273 16.6406 287.378 16.6214C287.34 16.6724 287.101 16.7079 286.897 16.7384C286.66 16.7623 286.393 16.78 286.1 16.791C286.628 17.0149 286.654 17.0215 285.882 17.0808C285.111 17.1401 285.377 17.2291 284.732 17.2418C284.086 17.2545 284.82 17.4059 285.252 17.4355C285.572 17.4549 285.899 17.4851 286.209 17.5241C286.52 17.5631 286.807 17.6099 287.05 17.6614L286.921 17.8337C286.731 17.8194 286.54 17.8008 286.356 17.7786C285.731 17.684 285.162 17.5949 284.606 17.6499L284.871 17.7808L282.93 17.7049C282.98 17.803 283.276 17.9148 283.755 18.0166C283.683 18.0726 283.639 18.1314 283.623 18.1929C283.59 18.2359 283.399 18.2088 283.274 18.2135C282.829 18.2207 282.465 18.2499 282.211 18.2985C281.958 18.3471 281.825 18.4136 281.823 18.4923C281.773 18.5588 282.456 18.697 282.883 18.6924C283.95 18.7057 285.104 18.7569 286.282 18.8433C287 18.8545 287.102 18.6795 288.284 18.799C288.307 18.8798 288.156 18.9452 287.852 18.9854C287.549 19.0256 287.11 19.0383 286.602 19.0216C286.891 19.2012 288.491 19.248 288.562 19.4356C288.163 19.4224 287.737 19.3912 287.326 19.3451C286.914 19.2991 286.532 19.2398 286.216 19.1731C286.148 19.1567 286.062 19.1415 285.967 19.1291C285.872 19.1166 285.77 19.1072 285.672 19.1018C285.573 19.0964 285.481 19.0951 285.403 19.098C285.325 19.101 285.265 19.1081 285.227 19.1187C285.449 19.1865 285.692 19.265 285.97 19.3383C286.248 19.4117 286.315 19.4434 286.516 19.4588C288.011 19.6046 288.721 19.8674 290.015 20.0398C290.353 20.0728 290.395 20.1778 290.101 20.166C289.822 20.1541 289.569 20.1556 289.371 20.1704C289.172 20.1852 289.037 20.2127 288.979 20.2498C288.762 20.293 288.492 20.3274 288.175 20.3521C289.501 20.6217 291.083 20.8599 292.771 21.0444C293.091 21.0808 293.424 21.1031 293.723 21.1078C294.665 21.1081 295.665 21.1295 296.703 21.1716C297.071 21.183 297.411 21.182 297.704 21.1684C298.667 21.1362 299.432 21.2066 300.13 21.4051L301.286 21.7197C301.248 21.7706 301.054 21.8273 300.905 21.9052L301.808 22.0732L308.699 21.6863L310.083 22.0609L312.067 22.0401C312.219 22.0509 312.372 22.0658 312.518 22.0841C312.919 22.1947 313.233 22.301 313.668 22.4065C314.104 22.5121 314.881 22.5249 315.423 22.6492C315.966 22.7736 316.509 22.7762 317.18 22.85C317.243 22.9463 317.178 23.033 316.988 23.1046C316.927 23.1868 316.586 23.2376 316.527 23.316C316.533 23.3951 316.406 23.4623 316.158 23.5115C315.91 23.5607 315.547 23.5902 315.104 23.5975C313.862 23.766 312.365 23.886 310.657 23.9539C310.507 23.9588 310.383 23.9702 310.292 23.9874C310.201 24.0045 310.145 24.0271 310.128 24.0536C310.13 24.1304 310.016 24.1968 309.795 24.2479C309.573 24.299 309.249 24.3335 308.846 24.3489C308.739 24.352 308.658 24.3616 308.613 24.3766C308.461 24.3863 308.349 24.4048 308.29 24.4304C308.231 24.456 308.226 24.4877 308.276 24.5226C308.326 24.5575 308.429 24.5943 308.575 24.6295C308.721 24.6647 308.905 24.697 309.109 24.7235C309.406 24.7661 309.709 24.8069 310.017 24.8456C309.999 24.8691 309.693 24.8729 309.738 24.8941C309.859 24.9617 309.887 25.025 309.82 25.079C309.753 25.133 309.593 25.1763 309.352 25.2054L310.999 25.7528C311.999 25.8287 312.98 25.9573 313.755 26.1142C313.756 26.1399 313.712 26.1615 313.626 26.1767C313.54 26.1919 313.416 26.2003 313.266 26.201C312.864 26.2122 312.484 26.234 312.051 26.2464C311.786 26.2556 311.566 26.276 311.403 26.3063C311.24 26.3365 311.137 26.3761 311.101 26.4227L312.068 26.6264C311.758 26.676 311.528 26.6998 311.324 26.7303C311.44 26.7943 311.639 26.8605 311.907 26.9238C312.174 26.987 312.502 27.0457 312.866 27.0952C312.964 27.1054 313.063 27.1128 313.159 27.1171C313.254 27.1214 313.344 27.1224 313.423 27.12C314.172 27.0502 315.048 27.1735 315.899 27.2902C316.75 27.4068 317.211 27.4771 317.84 27.5678L319.042 27.58C319.346 27.6229 319.617 27.6734 319.834 27.7275C320.051 27.7815 320.208 27.8375 320.291 27.8911C320.226 27.9772 319.656 27.93 319.317 27.9389C318.511 27.9925 317.451 27.9811 316.313 27.9065C316.031 27.879 315.742 27.9012 315.467 27.9038C314.875 27.9145 314.306 27.932 313.763 27.9561C313.405 27.9785 313.07 28.0063 312.762 28.0392C312.679 28.1488 313.978 28.2335 313.241 28.2877C313.495 28.3125 313.59 28.347 313.72 28.3345C314.556 28.4057 315.38 28.4409 316.096 28.436C317.471 28.4209 319.031 28.4709 320.65 28.5818C322.397 28.6968 324.073 28.745 325.54 28.7227C326.098 28.7213 326.723 28.7449 327.365 28.7915C328.124 28.856 328.877 28.8966 329.577 28.9106C329.808 28.9111 330.066 28.9221 330.33 28.9426C330.593 28.9632 330.854 28.9928 331.092 29.029C331.072 29.0564 330.845 29.0763 330.895 29.0897C331.619 29.2948 331.913 29.5084 333.027 29.718C333.788 29.7923 334.663 29.8776 335.161 29.7791C335.659 29.6806 335.48 29.5959 334.489 29.3436C334.704 29.34 334.963 29.3518 335.221 29.3769C335.479 29.4021 335.719 29.439 335.9 29.4813L336.757 29.67L337.529 29.8505C337.462 29.9405 337.409 30.011 337.353 30.0854C337.264 30.1645 337.361 30.2607 337.63 30.3605C337.792 30.415 337.934 30.4696 338.052 30.5236C338.535 30.7398 338.675 30.9441 338.456 31.1137C338.037 31.3575 337.453 31.5818 336.711 31.7841C335.927 31.9809 335.498 32.229 334.852 32.4435C334.523 32.5411 334.122 32.6286 333.656 32.7051C332.771 32.8752 331.801 33.037 330.914 33.211C330.026 33.385 329.023 33.51 328.037 33.6534C326.569 33.8236 324.982 33.9706 323.286 34.0935C322.236 34.2013 321.157 34.3063 320.186 34.4301C319.039 34.5697 317.691 34.6699 316.177 34.7283C314.839 34.7982 313.644 34.9016 312.614 35.0365C312.506 35.0511 312.421 35.0696 312.361 35.0916C312.176 35.2292 311.656 35.3261 310.882 35.3676C310.929 35.4079 310.989 35.4488 311.062 35.4903C311.169 35.5397 311.192 35.5859 311.126 35.623C311.06 35.6601 310.91 35.6863 310.694 35.6982C310.074 35.7323 309.559 35.7901 309.172 35.8692C309.03 35.889 308.942 35.9179 308.915 35.9534C308.888 35.9889 308.924 36.0299 309.019 36.0728C309.103 36.1171 309.109 36.1578 309.037 36.1897C308.964 36.2216 308.816 36.2432 308.612 36.2517C308.088 36.2936 307.526 36.3273 306.931 36.3526C305.665 36.4083 304.193 36.4077 302.603 36.3506C302.434 36.3341 302.263 36.3595 302.066 36.3402C300.941 36.2763 299.897 36.2664 299.059 36.3117C298.077 36.3294 297.05 36.3259 296.015 36.3341C294.518 36.3286 293.138 36.3622 291.912 36.4341C290.511 36.3646 289.724 36.4854 288.541 36.4877C287.449 36.5001 286.414 36.5299 285.446 36.5767C283.886 36.6388 282.331 36.6931 280.793 36.7658C279.35 36.8004 278.021 36.8667 276.829 36.9633C276.372 37.007 275.545 36.939 275.234 37.0305C274.923 37.1221 274.295 37.1113 273.788 37.1416L272.187 37.2167C271.912 37.2345 271.609 37.2458 271.284 37.2504C269.796 37.2565 268.765 37.3788 267.384 37.4037L267.243 37.39C264.79 37.5717 261.983 37.6714 258.905 37.6862C257.107 37.742 255.141 37.7393 253.233 37.7802C252.778 37.8619 251.703 37.7612 251.132 37.8358C250.561 37.9104 249.629 37.8615 248.893 37.8738C248.157 37.886 247.438 37.9167 246.651 37.9157C245.968 37.916 245.392 37.9493 244.974 38.0126C244.02 38.1172 242.857 38.1787 241.537 38.1943C239.79 38.2215 238.139 38.2832 236.363 38.2696C236.388 38.3458 236.279 38.4106 236.047 38.4574C235.815 38.5042 235.468 38.5313 235.042 38.5359C233.143 38.5649 231.421 38.6407 229.496 38.6631L228.982 38.6633L223.226 38.7071C221.675 38.7155 220.181 38.7295 218.599 38.7391C218.007 38.6813 217.993 38.7808 217.583 38.7618C217.469 38.7128 217.333 38.6912 217.132 38.7178L217.088 38.7765L210.519 38.8545C207.947 38.9115 205.242 38.9285 202.426 38.9056C201.759 38.9114 201.135 38.9308 200.566 38.9637C200.039 38.9757 199.489 38.981 198.919 38.9795C198.149 38.9647 197.397 38.9573 196.665 38.9572C194.741 38.9796 192.721 38.9675 190.614 38.9511C188.507 38.9346 186.91 38.9638 185.035 38.9616C183.765 38.9596 182.5 38.9497 181.185 38.9265C180.558 38.9157 179.784 38.8571 179.134 38.8357C178.484 38.8143 178.272 38.8146 178.186 38.8483C177.903 38.9426 177.192 38.8816 176.624 38.8724C175.515 38.8567 175.358 38.8245 175.057 38.5808L176.417 38.5033C176.75 38.4783 177.17 38.4739 177.634 38.4905C178.099 38.5072 178.594 38.5443 179.071 38.5983C179.258 38.6214 179.454 38.6397 179.648 38.6521C179.841 38.6644 180.028 38.6707 180.197 38.6704C181.57 38.6571 182.923 38.6294 184.242 38.6068L184.435 38.592L184.447 38.3746C184.272 38.3532 184.091 38.3356 183.911 38.3223L177.295 38.1812C175.777 38.1466 174.201 38.0685 172.711 38.0366C171.221 38.0047 170.418 37.9852 169.262 37.9523C168.774 37.9335 168.277 37.9089 167.773 37.8785C167.802 37.8576 167.819 37.8353 167.823 37.8119C167.85 37.7767 167.885 37.7297 167.671 37.692C167.438 37.6388 167.126 37.5934 166.798 37.5648C166.49 37.5459 166.191 37.5352 165.913 37.5331C164.572 37.5149 163.039 37.4001 161.643 37.2131L161.155 37.3379C159.058 37.2678 156.93 37.1989 154.739 37.1322C154.301 37.1141 153.84 37.0792 153.393 37.0303C152.913 36.9835 152.472 36.8858 151.967 36.8324C151.469 36.7939 150.973 36.7639 150.491 36.7429C150.621 36.7108 150.794 36.6851 151.002 36.6667C151.207 36.6603 151.357 36.6402 151.429 36.6094C151.501 36.5787 151.492 36.5388 151.403 36.4957C151.247 36.4216 151.178 36.3518 151.518 36.3429C151.832 36.326 152.057 36.2895 152.165 36.2375C152.274 36.1856 152.263 36.1204 152.132 36.0498C152.075 36.0084 152.035 35.968 152.011 35.9287L151.87 35.9149C151.405 35.7686 150.476 35.7158 149.809 35.5961C149.494 35.5614 149.169 35.5414 148.883 35.5393C148.145 35.5136 147.427 35.5024 146.664 35.47C146.3 35.4551 145.919 35.4279 145.543 35.3901C145.007 35.3378 144.951 35.3323 144.64 35.1422C145.123 35.1455 145.506 35.1171 145.724 35.0618C145.943 35.0065 145.982 34.9276 145.837 34.8386C145.438 34.6442 145.017 34.4392 143.214 34.301C143.802 34.2942 144.368 34.2807 144.91 34.2605C145.067 34.2562 145.185 34.2419 145.248 34.2196C145.31 34.1972 145.314 34.168 145.26 34.1357C145.205 34.1034 145.094 34.0695 144.941 34.0388C144.789 34.008 144.602 33.9817 144.406 33.9634C143.454 33.8534 142.461 33.7798 141.538 33.7508C140.761 33.738 140.059 33.7452 139.151 33.7449L138.079 33.6403C138.097 33.6168 137.939 33.5846 137.979 33.5717C138.252 33.4511 138.552 33.3333 138.861 33.2038C138.367 33.1338 137.939 33.0494 137.626 32.9601C137.313 32.8708 137.128 32.7803 137.091 32.699C137.065 32.6745 137.072 32.6521 137.112 32.6335C137.152 32.6149 137.224 32.6005 137.324 32.5914C137.606 32.5756 137.824 32.5456 137.96 32.5035C138.097 32.4615 138.149 32.4085 138.112 32.3488L137.278 32.1287C134.769 31.9717 132.304 31.8595 129.93 31.7943L127.787 31.7449C127.528 31.6861 127.608 31.6602 127.852 31.6588C128.095 31.6573 128.779 31.6736 129.257 31.6824C129.67 31.6939 130.036 31.6864 130.321 31.6604C130.606 31.6344 130.799 31.5909 130.883 31.5341L130.163 31.2832C130.198 31.2362 130.248 31.1696 130.639 31.174C130.905 31.1686 131.102 31.1449 131.196 31.1069C131.291 31.0688 131.278 31.0186 131.16 30.9643C131.142 30.925 131.169 30.8892 131.24 30.8585C131.817 30.856 132.391 30.8574 132.915 30.8454C133.159 30.8415 133.365 30.8269 133.519 30.8028C133.673 30.7786 133.771 30.7455 133.807 30.7055C133.826 30.6665 133.78 30.6221 133.673 30.5759C133.566 30.5296 133.4 30.4829 133.19 30.4393C132.369 30.3854 131.618 30.3847 131.102 30.4374C130.918 30.4786 130.623 30.5012 130.254 30.502C129.886 30.5029 129.463 30.482 129.04 30.4421C128.555 30.3962 128.072 30.376 127.676 30.3852C127.281 30.3943 126.999 30.4323 126.882 30.4923C126.385 30.469 125.944 30.4512 125.509 30.4256C124.997 30.3932 124.512 30.3837 124.107 30.398C123.46 30.4081 122.763 30.4022 122.031 30.3804C119.922 30.326 117.81 30.2755 115.769 30.2528C115.228 30.2463 114.761 30.2638 114.227 30.2495C113.693 30.2352 113.27 30.2738 112.602 30.196C112.475 30.184 112.346 30.1762 112.228 30.1734C112.109 30.1705 112.003 30.1727 111.918 30.1797C110.744 30.2413 109.369 30.25 107.871 30.2053C105.821 30.1944 103.694 30.1634 101.64 30.1564C101.038 30.1625 100.469 30.1786 99.9387 30.2048C99.5353 30.2206 99.1127 30.2313 98.6732 30.2368C98.3364 30.2418 98.0142 30.2272 98.0711 30.3126C98.1279 30.398 97.6232 30.3446 97.3323 30.3288C96.3328 30.2874 95.3112 30.2313 94.2791 30.1612C93.2621 30.085 92.2656 30.0407 91.3493 30.0309C90.6875 30.0252 90.005 30.0468 89.1541 29.9302C89.1865 29.8871 89.2189 29.844 89.4041 29.7991C88.7102 29.6753 87.9185 29.5688 87.0945 29.4884C86.2704 29.408 85.4377 29.356 84.6652 29.3367L83.6 29.1024C83.3377 29.0749 83.07 29.0549 82.813 29.0436C82.5561 29.0322 82.3153 29.0298 82.1054 29.0365C81.9431 29.0399 81.7454 29.0312 81.5485 29.0119C81.3516 28.9927 81.1687 28.9643 81.0335 28.9319C80.8312 28.8906 80.5841 28.8551 80.3232 28.8296C80.0623 28.8041 79.7991 28.7899 79.5667 28.7888C78.8348 28.7633 78.0535 28.7045 77.3028 28.6183C77.108 28.5678 76.986 28.5157 76.9517 28.4682C76.9174 28.4208 76.9725 28.3803 77.11 28.3515C77.3318 28.3007 77.4563 28.2361 77.476 28.1614C77.4957 28.0867 77.4103 28.0036 77.2248 27.9171C77.1299 27.864 77.0981 27.8137 77.1316 27.7693C77.165 27.7249 77.2629 27.6872 77.4193 27.6587C78.0032 27.5265 77.847 27.4524 76.8917 27.2331C76.7365 27.1965 76.5494 27.1623 76.3423 27.1327C76.1353 27.1031 75.9128 27.0787 75.6888 27.061C75.1634 27.0253 74.6452 26.9987 74.1437 26.9818C73.8616 26.9542 73.5723 26.9764 73.2473 26.9658C71.6222 26.9123 71.3843 26.826 70.858 26.6401L70.4745 26.506C69.7631 26.3974 68.9851 26.3072 68.1965 26.2419C67.4079 26.1766 66.6284 26.1378 65.9141 26.1283C65.6302 26.1276 65.3037 26.1091 64.9849 26.0755C63.9472 25.9729 62.8963 25.9019 61.9018 25.8672C61.2821 25.8476 60.6141 25.7971 59.978 25.7216C59.3419 25.6461 58.7647 25.5489 58.3159 25.4416C57.9128 25.345 57.3853 25.2583 56.807 25.1935C56.13 25.1275 56.0673 25.0499 56.4454 24.9901C56.8234 24.9303 57.4566 24.8534 58.0186 24.7905C58.2142 24.7691 58.3354 24.7344 58.3687 24.6901C58.4019 24.6459 58.3461 24.5939 58.2072 24.5399C58.118 24.4475 58.1025 24.3598 58.1612 24.2789C58.1925 24.2454 58.1709 24.2068 58.0977 24.166C58.0246 24.1252 57.9017 24.0829 57.7372 24.0422C57.5727 24.0014 57.3706 23.9631 57.1443 23.9298C56.9181 23.8965 56.673 23.8689 56.4257 23.849C55.382 23.7472 54.3665 23.6481 53.3022 23.5737C52.8561 23.5386 52.4106 23.4951 51.9764 23.4443C51.0876 23.3187 50.1368 23.2144 49.1791 23.1377C48.7246 23.1035 48.2803 23.0435 47.9422 22.9708C46.876 22.7751 45.8935 22.5693 45.0127 22.3571C44.8003 22.2913 44.5225 22.2271 44.1967 22.1685C43.8708 22.11 43.5038 22.0583 43.1189 22.0168C42.8086 21.9865 42.556 21.9198 42.3169 21.8755C42.1431 21.7728 42.1245 21.6778 42.2629 21.5994C42.4014 21.5209 42.6922 21.4617 43.1083 21.4272C43.5027 21.3859 43.8719 21.3378 44.2129 21.287C44.624 21.2459 45.1127 21.2213 45.6608 21.2139C46.31 21.1919 46.79 21.1288 47.0383 21.033C45.2612 20.8596 43.5712 20.6107 42.0135 20.6689L40.8299 20.5114C40.8771 20.4487 40.9183 20.3939 40.9566 20.343C41.2381 20.2503 41.326 20.1334 41.2129 20.0022C41.1197 19.9388 41.1281 19.8811 41.2373 19.8349C41.3465 19.7887 41.5526 19.7557 41.8347 19.7392C43.5061 19.5702 45.4389 19.4562 47.0063 19.2644C47.4977 19.2284 48.073 19.212 48.7079 19.216C49.3222 19.2045 49.2965 19.1179 48.5896 19.0111C48.1928 18.9553 47.7884 18.9018 47.3779 18.8509C45.5676 18.8424 44.8301 19.0983 42.7642 19.027L41.8067 18.6898C41.5477 18.6846 41.2964 18.6825 41.0543 18.6837L37.5903 18.8207C37.3018 18.8276 37.0772 18.851 36.9421 18.8883C36.8069 18.9257 36.7667 18.9754 36.8258 19.0319C36.8493 19.1011 36.8016 19.1645 36.6844 19.2199C36.6089 19.2587 36.6572 19.3103 36.8188 19.3633C37.183 19.4829 36.7157 19.5004 36.4206 19.5305C36.3451 19.5334 36.2581 19.5331 36.1646 19.5295C36.0712 19.526 35.973 19.5193 35.8759 19.5098C35.7788 19.5003 35.6847 19.4883 35.5991 19.4743C35.5134 19.4604 35.4379 19.4449 35.3769 19.4286C34.8569 19.3148 34.4021 19.1948 33.891 19.0693C34.2539 18.9491 33.8269 18.7519 34.3932 18.6432C34.4565 18.6215 34.4818 18.5951 34.4676 18.5655C34.4534 18.5359 34.4 18.5039 34.3106 18.4712C34.08 18.3871 33.9702 18.305 33.9922 18.2334C34.0142 18.1617 34.1673 18.103 34.436 18.0631L34.4684 18.02C33.7598 17.8752 33.9475 17.7464 33.6692 17.5932L32.9876 17.493C31.2917 17.2519 31.2887 17.2558 29.8287 17.2647C29.5344 17.1729 29.9083 17.159 30.1887 17.1485L32.537 17.0455C34.0724 16.9767 35.6525 16.9291 37.3676 16.9031C39.0828 16.8771 40.995 16.7904 42.7678 16.728C42.8575 16.7232 42.926 16.7136 42.9678 16.7001C43.0095 16.6867 43.0232 16.6697 43.0078 16.6505C42.9373 16.6299 42.8451 16.6099 42.7379 16.5922C42.6307 16.5745 42.5113 16.5594 42.3884 16.5481C41.8243 16.493 41.2454 16.4576 40.6442 16.4115L39.5234 16.3316L39.1786 16.2265C38.9542 16.1626 38.8009 16.0845 38.5024 16.0386C38.2564 16.0043 37.9894 15.9783 37.7291 15.9633C37.4688 15.9482 37.2248 15.9447 37.0226 15.9531C36.4618 15.974 35.9545 16.0044 35.419 16.032C34.8835 16.0596 34.5883 16.0897 34.124 16.1032C33.1805 16.1094 32.2687 16.1257 31.3925 16.152C30.6545 16.2143 29.9719 16.2881 29.349 16.373C28.9604 16.4065 28.5971 16.4467 27.9335 16.403C27.6187 16.3633 27.3472 16.3113 27.1671 16.256C26.987 16.2007 26.9099 16.1458 26.9496 16.101C26.9852 16.0659 27.086 16.0381 27.2424 16.0203C27.3989 16.0025 27.6058 15.9952 27.8438 15.9991C28.5098 15.9926 29.1257 15.9709 29.679 15.9343C30.4492 15.8681 31.3867 15.8395 32.4369 15.8503C32.7931 15.8599 33.0318 15.8243 33.3434 15.8127C33.6549 15.801 33.9188 15.7721 34.2662 15.7934C35.3452 15.8483 35.8626 15.7642 36.5093 15.7096C36.7282 15.6854 36.8638 15.6463 36.9012 15.5965C36.9387 15.5468 36.8765 15.4883 36.7214 15.4277C36.423 15.3068 36.0579 15.1852 35.6318 15.0649C35.4126 15.0058 35.1316 14.9496 34.8111 14.9008C34.4906 14.8521 34.1391 14.812 33.7843 14.7838C33.572 14.7097 33.4587 14.637 33.4547 14.572C33.4507 14.507 33.5562 14.4519 33.7616 14.4116C34.2848 14.3198 34.7488 14.2263 35.9213 14.2777C36.4725 14.2973 36.9913 14.301 37.457 14.2888C38.4901 14.272 39.6816 14.3087 40.9195 14.3954C41.2397 14.4176 41.5545 14.4328 41.8546 14.4404C43.9946 14.4937 46.0335 14.5203 48.0783 14.539C49.1615 14.548 50.2537 14.5453 51.3845 14.5716C54.0364 14.6285 56.4505 14.5992 59.0102 14.6178C60.3508 14.6273 61.5507 14.589 62.5471 14.5047C62.7411 14.4765 62.9078 14.4435 63.0451 14.4062C62.3848 14.3083 61.6596 14.2307 60.9388 14.181C60.2181 14.1313 59.526 14.1111 58.9288 14.1222C58.6006 14.1497 58.1762 14.1547 57.7032 14.1367C57.2302 14.1188 56.7271 14.0786 56.2499 14.0206L57.6372 13.9878C58.5571 13.9725 59.4993 13.9677 60.3939 13.9457C61.8152 13.9078 63.1325 13.8472 64.6043 13.8227C65.7926 13.8001 66.856 13.7424 67.761 13.6515C68.4148 13.5851 69.1616 13.538 69.986 13.5112C70.5721 13.497 70.5721 13.497 70.9467 13.3612C70.6495 13.2733 70.2651 13.261 69.903 13.2593C67.7324 13.2041 65.6666 13.1944 63.7479 13.2305C62.7798 13.2337 61.921 13.2709 61.2126 13.3404C61.0392 13.3697 60.5954 13.3558 60.2392 13.3463C59.1227 13.3318 58.0555 13.336 57.0506 13.3589C55.6611 13.397 54.1136 13.3879 52.4683 13.3321C52.1563 13.2639 52.5154 13.2695 52.5331 13.246C53.8075 13.2022 55.0566 13.1517 56.3562 13.1146C56.7115 13.1013 57.0913 13.0948 57.4913 13.095C58.9845 13.118 60.2289 13.0543 61.05 12.9126C61.0912 12.8578 61.6314 12.8642 61.8701 12.8287C61.9875 12.7979 62.0657 12.7616 62.1024 12.721C61.7547 12.6198 61.3615 12.6193 61.0588 12.6192C60.1804 12.6305 59.3353 12.6519 58.5277 12.6833C57.777 12.7132 56.946 12.7212 56.0572 12.7071C55.4013 12.6935 54.8405 12.7145 54.1787 12.7088C53.8197 12.6967 53.4481 12.6774 53.0714 12.6512C53.4908 12.5806 54.0609 12.5373 54.7416 12.5241C55.2577 12.4819 55.9031 12.4693 55.9856 12.3596C55.7418 12.2812 55.4702 12.2799 55.2521 12.288C54.7982 12.2877 54.3597 12.2927 53.939 12.3028C53.047 12.3251 52.0812 12.3254 51.0618 12.3038C50.5251 12.2956 50.0158 12.2981 49.5424 12.311C48.4697 12.3283 47.4416 12.3667 46.4594 12.3843C44.4474 12.4024 42.6123 12.4672 40.6791 12.5014C40.2488 12.5098 39.8631 12.5394 39.296 12.4883C38.7289 12.4372 38.7037 12.4305 38.6367 12.3988C38.478 12.3458 38.4299 12.2944 38.5024 12.2553C38.6149 12.2188 38.834 12.1985 39.1208 12.198C40.849 12.1399 42.4882 12.0583 44.0281 11.9538C44.7058 11.9328 45.2995 11.8901 45.7887 11.8271C46.1766 11.7837 46.6368 11.755 47.1548 11.7418C47.9082 11.7104 48.6936 11.6874 49.5078 11.6729C49.8867 11.6651 50.2088 11.6419 50.4553 11.6046C50.7018 11.5672 50.8676 11.5166 50.9429 11.4556L49.9447 11.2531C49.7879 11.2437 49.6323 11.2356 49.4787 11.2287L41.1937 11.3745L40.3732 11.3786C39.4739 11.3665 39.2541 11.3366 38.4011 11.1021C40.3478 11.0469 41.8782 10.886 42.8397 10.6356C42.6086 10.6086 42.3717 10.5855 42.1345 10.5668C40.5787 10.5075 39.1081 10.4918 37.7791 10.5201C36.9897 10.523 36.1781 10.5153 35.3634 10.5114C35.6017 10.396 36.5144 10.4304 37.1093 10.4043C38.5306 10.3636 39.7876 10.2795 40.8398 10.1546C41.2026 10.1059 41.6564 10.0748 42.1806 10.0626C42.7052 10.0584 43.1434 10.029 43.4571 9.97679C43.7707 9.92461 43.9504 9.85129 43.9803 9.76322C44.0297 9.68347 44.1363 9.60937 44.2982 9.54201C44.0117 9.44645 43.5567 9.35492 43.0186 9.28463C42.4806 9.21433 41.8965 9.17009 41.3759 9.1602C40.2646 9.12085 39.1119 9.05643 37.9472 8.96859C37.367 8.92428 36.7981 8.89884 36.2774 8.89394C35.8183 8.89017 35.2964 8.85817 34.7913 8.80282C34.2863 8.74747 33.8258 8.67182 33.4802 8.58739C33.0137 8.48302 32.5783 8.37748 32.1429 8.27195C31.7076 8.16642 31.2024 8.03306 30.6942 7.90361C30.2462 7.88336 29.8098 7.87035 29.3912 7.86475C29.0655 7.86949 28.6854 7.85538 28.2959 7.82407C27.9063 7.79277 27.5235 7.74557 27.1926 7.68806C27.3867 7.63133 27.6061 7.58127 27.8372 7.51555C27.5199 7.42876 27.2899 7.34025 27.1611 7.25541C27.0324 7.17058 27.0075 7.09119 27.0881 7.0221C27.1352 6.95944 26.7904 6.85433 26.6712 6.77124C26.5178 6.69961 26.489 6.63277 26.5885 6.57947C26.6881 6.52617 26.9113 6.48891 27.229 6.47256C27.6231 6.4424 27.9437 6.39698 28.1779 6.33815C28.2554 6.32289 28.2948 6.30197 28.2926 6.27733C28.2904 6.25269 28.2466 6.2251 28.1653 6.1971C28.084 6.16909 27.9677 6.14155 27.827 6.11701C27.6864 6.09247 27.5259 6.0717 27.3603 6.0566C26.8529 6.0138 26.349 5.98606 25.8774 5.97498C25.0652 5.95457 24.2876 5.94176 23.5446 5.93653C22.723 5.92866 21.8089 5.88008 20.8952 5.79572C20.0772 5.71591 19.3437 5.64435 18.9438 5.49182C18.5438 5.3393 17.9042 5.34416 17.4125 5.23312C17.6887 5.13303 18.1797 5.06349 18.8359 5.03151C19.2653 5.02009 19.6237 4.99013 19.8882 4.94355C20.1527 4.89696 20.3173 4.83478 20.3717 4.76099L18.8787 4.45138C17.6864 4.30562 17.0267 4.41781 15.7384 4.35937L17.0658 4.24507C17.0925 4.23378 17.1024 4.22051 17.0953 4.20591C16.9664 3.97475 16.7613 3.92532 15.4044 3.79712L14.6428 3.72282L13.4374 3.63463C13.2443 3.58725 13.1108 3.53785 13.0502 3.49136C12.9895 3.44487 13.0038 3.40292 13.0917 3.3697C13.2683 3.31384 13.322 3.24247 13.2478 3.16214C13.1309 3.10893 13.1213 3.05988 13.2206 3.0235C13.3198 2.98711 13.5218 2.96569 13.7913 2.96296C14.0065 2.95872 14.0224 2.89723 14.1395 2.86241C14.2558 2.81441 14.4548 2.77759 14.723 2.75443C14.9912 2.73127 15.3223 2.72233 15.6937 2.72821C16.789 2.73302 17.8178 2.715 18.762 2.67448L18.5928 2.65797C19.577 2.69354 20.4971 2.69785 21.3083 2.6707C22.1212 2.63652 23.1645 2.65845 24.028 2.63761C24.731 2.64239 25.2662 2.59509 25.52 2.50574C25.7659 2.42044 26.6592 2.44035 27.3434 2.45665C27.7486 2.4672 28.1403 2.47167 28.5142 2.47001C29.0161 2.4507 29.6436 2.4689 30.2922 2.52158C30.4868 2.53777 30.6784 2.54634 30.8488 2.54646C32.4974 2.5686 34.1431 2.59465 35.7695 2.60621C36.1449 2.59955 36.5851 2.61479 37.0384 2.65015C37.2289 2.66549 37.4143 2.67185 37.5697 2.66837C40.1396 2.63326 43.0394 2.72283 45.5587 2.67439C45.8641 2.66295 46.2021 2.66057 46.5633 2.66731C47.3749 2.69577 48.0797 2.67746 48.5706 2.61515C48.8355 2.58201 49.1752 2.56375 49.5678 2.56154C49.9605 2.55932 50.3976 2.57319 50.8512 2.60227C51.6062 2.64077 52.3039 2.64495 52.8708 2.61435C53.9761 2.58609 55.1384 2.57447 56.3487 2.57958C56.7196 2.58453 57.0455 2.57354 57.3014 2.54748C57.5573 2.52142 57.7362 2.48098 57.8243 2.42929C57.527 2.34144 57.202 2.33075 56.8934 2.33847C55.6974 2.31845 54.5042 2.29452 53.3304 2.28508C52.2798 2.25814 51.2718 2.2499 50.3211 2.26049C49.849 2.27244 49.26 2.24519 48.6825 2.18469C47.9748 2.10806 47.2458 2.06999 46.6431 2.07818C46.1962 2.08021 45.7245 2.07362 45.2348 2.05848C44.9214 2.04022 44.6001 2.00888 44.304 1.96766C44.1865 1.94975 44.0585 1.9347 43.9284 1.92346C43.7983 1.91222 43.669 1.90505 43.5484 1.90239C43.4279 1.89972 43.3189 1.90163 43.2285 1.908C43.138 1.91438 43.0682 1.92507 43.0233 1.93938C42.5699 2.05909 41.5561 1.998 40.6879 1.98476C39.387 1.78216 38.4187 1.90207 37.2029 1.78764C37.1067 1.78006 37.0119 1.77546 36.9244 1.77415C36.8369 1.77284 36.7585 1.77483 36.6938 1.78001C34.3408 1.84889 31.5984 1.79149 29.1279 1.81527C28.8555 1.81875 28.5392 1.80683 28.2152 1.78086C26.0973 1.60901 24.0611 1.56022 22.5046 1.64404C22.3152 1.65159 22.0997 1.65191 21.868 1.64499C20.8038 1.57669 19.7861 1.54946 18.8999 1.56557C17.511 1.56037 16.1756 1.56458 14.7644 1.5488C13.7916 1.52633 12.9382 1.55033 12.2897 1.61841C12.269 1.64582 11.8371 1.61628 11.5061 1.61342C11.3158 1.54441 11.1508 1.48207 10.9546 1.42089C10.7792 1.3452 10.5165 1.26861 10.1843 1.1963C9.85212 1.124 9.45827 1.05769 9.02929 1.00183C8.29588 0.930275 8.22253 0.826435 8.73573 0.788232C10.0585 0.661836 11.7218 0.610106 13.6034 0.636832C15.1763 0.638969 16.7774 0.643862 18.3726 0.656583C19.303 0.667496 20.2839 0.691737 21.1891 0.695981C21.4945 0.705308 21.8083 0.719051 22.1271 0.737063C22.5183 0.763181 22.8982 0.777412 23.2462 0.778991C24.3636 0.756995 25.6107 0.776158 26.9279 0.83556C27.4104 0.848513 27.8737 0.852877 28.3109 0.848592C29.3453 0.832468 30.4666 0.844332 31.6453 0.883877C32.3779 0.906174 33.0882 0.917833 33.7689 0.918729C34.0093 0.921167 34.2051 0.902436 34.4366 0.916621C36.4747 1.06504 37.9179 0.957836 39.7523 1.01491C40.6438 1.03082 41.4955 1.03087 42.2956 1.01504C43.8568 1.01581 45.4616 1.03208 47.1035 1.06379C49.2746 1.11589 51.2866 1.09782 53.3596 1.11933C53.7689 1.12385 54.1641 1.12308 54.5423 1.11702C56.382 1.07698 58.3802 1.08547 60.4882 1.14228C60.9668 1.15049 61.3967 1.14045 61.751 1.11281C62.1052 1.08517 62.3762 1.04051 62.5468 0.981631C62.619 0.941222 62.5723 0.888738 62.4155 0.8343C62.1553 0.764777 61.8615 0.696661 61.5389 0.631072L49.8049 0.410979C49.3121 0.399487 48.8315 0.393299 48.3655 0.392443C46.9951 0.390531 45.5825 0.373408 44.1348 0.341163C42.7042 0.310875 41.3376 0.316252 39.9516 0.307132C39.5434 0.304078 39.1243 0.296871 38.6962 0.28553C35.8024 0.195782 32.9806 0.140963 30.2507 0.121472C29.1022 0.118705 27.8615 0.0775153 26.6907 0.0641648C25.5199 0.0508142 23.9187 0.045926 22.5298 0.0407237L18.2297 0.041522C17.3839 0.0388651 16.5604 0.0467913 15.7399 0.0508038C14.7441 -0.235514 14.401 -0.302625 13.0723 -0.428066C12.6177 -0.474338 12.1553 -0.50195 11.7394 -0.507673C10.4203 -0.485038 8.76533 -0.579259 7.51452 -0.566784C6.75977 -0.572938 6.11932 -0.541131 5.65875 -0.474619C5.25895 -0.42242 4.80176 -0.381116 4.29426 -0.351331C2.90404 -0.59627 2.78152 -0.755351 3.82729 -0.817257C4.11062 -0.831647 4.50089 -0.827195 4.70549 -0.857675C4.82289 -0.876239 4.98327 -0.886855 5.17384 -0.888691C5.36441 -0.890525 5.57991 -0.883531 5.80344 -0.868251C6.5089 -0.828167 7.17012 -0.81874 7.72075 -0.840917C8.23896 -0.870267 8.87417 -0.869096 9.56514 -0.837511C10.0729 -0.78797 10.5192 -0.857924 10.9583 -0.878135C11.3974 -0.898345 11.7577 -0.93465 12.4436 -0.880344C12.5692 -0.869532 12.6938 -0.863039 12.8081 -0.861368C12.9223 -0.859697 13.023 -0.86289 13.1024 -0.870703C13.8391 -0.905678 14.7181 -0.902003 15.6681 -0.859979C17.1252 -0.818625 18.4923 -0.817076 19.722 -0.85538C20.4581 -0.888897 21.0857 -0.948333 21.5803 -1.03137C21.7151 -1.05915 21.9152 -1.0758 22.1616 -1.07974C23.3989 -1.06241 24.7423 -0.997203 26.1053 -0.888322C26.6187 -0.844695 27.1315 -0.810187 27.6327 -0.78553C28.6628 -0.730758 29.659 -0.700067 30.592 -0.694364C31.9477 -0.693459 33.3591 -0.672386 34.8139 -0.631333C35.7117 -0.608476 36.5767 -0.600039 37.3988 -0.606117C38.2438 -0.608981 39.146 -0.591544 40.0849 -0.554213C41.0187 -0.523792 41.8415 -0.54132 42.4543 -0.604675C42.6561 -0.638816 42.8186 -0.679356 42.9389 -0.72554C41.5717 -0.875825 40.1578 -0.952201 38.9817 -0.93929C38.535 -0.949246 38.1641 -0.939195 37.6934 -0.997733L37.6787 -0.978151C37.585 -0.965448 37.4437 -0.962449 37.2817 -0.969731C37.1197 -0.977014 36.9482 -0.994064 36.8001 -1.01764C36.8561 -1.09205 36.9091 -1.16254 36.9474 -1.21345C37.8434 -1.20447 38.7135 -1.20519 39.5531 -1.21563C40.2608 -1.23066 41.2215 -1.09908 41.8341 -1.14861C43.0289 -1.08668 43.7896 -1.17219 44.8611 -1.14752C45.9326 -1.12284 47.1127 -1.04132 48.1841 -1.01665C49.1191 -1.00311 50.0269 -1.00017 50.9026 -1.00783C51.2048 -1.0186 51.5532 -1.01607 51.9265 -1.00041C52.4511 -0.970953 52.9391 -0.966017 53.3345 -0.986173C53.7299 -1.00633 54.0166 -1.05077 54.162 -1.11438C54.0251 -1.17397 53.8407 -1.25081 53.6281 -1.33041C54.0193 -1.39581 54.6133 -1.42335 55.3222 -1.40893L56.3238 -1.41209C56.5892 -1.41036 56.7921 -1.42804 56.8905 -1.46147C56.9889 -1.49491 56.9754 -1.54152 56.8526 -1.5917C54.9533 -1.84426 54.8834 -1.8721 53.4895 -1.70965L51.6387 -1.78514L51.6699 -1.7863ZM76.7031 -1.09251L76.5621 -1.10627L76.7031 -1.09251ZM307.346 25.7789L307.314 25.822L307.349 25.775L307.66 25.8053L307.68 25.7779L307.346 25.7789ZM262.295 6.89764C261.857 6.85064 261.414 6.80743 260.97 6.76828C260.853 6.76221 260.744 6.76084 260.652 6.76428C260.56 6.76773 260.487 6.77588 260.44 6.78806C260.405 6.83506 260.653 6.86766 260.878 6.88968C261.163 6.91931 261.454 6.93815 261.72 6.94423C261.987 6.95032 262.221 6.94345 262.397 6.92431L262.652 6.90717L262.295 6.89764ZM36.3992 18.3514C36.6879 18.3593 36.9618 18.3605 37.2139 18.3552C38.3325 18.3172 39.4035 18.262 40.5503 18.2267C41.9972 18.1373 43.66 18.1009 45.476 18.1188C46.1855 18.1276 46.785 18.0986 47.2043 18.0352C47.4554 18.0012 47.7794 17.9814 48.1566 17.9768L52.9577 17.8736C53.2545 17.8521 53.5111 17.8221 53.7214 17.7841C53.2983 17.7429 53.0162 17.7153 52.847 17.6988C52.4958 17.6942 52.194 17.7068 51.9717 17.7353C51.733 17.7837 51.3295 17.8029 50.8413 17.789C50.3485 17.7775 49.8679 17.7713 49.4019 17.7704C48.522 17.7729 47.6361 17.7831 46.7533 17.7895C46.4098 17.9241 45.396 17.863 44.5279 17.8498L43.8572 17.8558C41.6649 17.9256 39.5709 18.0216 37.5851 18.1434C37.2013 18.164 36.8707 18.1969 36.6034 18.241C36.5027 18.2754 36.4704 18.3183 36.5091 18.3663L36.3681 18.3525L36.3992 18.3514ZM134.295 31.2239C134.827 31.2331 135.381 31.2519 135.948 31.2802C136.386 31.309 136.812 31.3265 137.212 31.3319C139.448 31.3621 141.778 31.4318 144.17 31.5401C144.483 31.5565 144.784 31.5645 145.061 31.5639L147.019 31.5364C147.637 31.521 147.648 31.5053 147.199 31.2975C146.826 31.2572 146.449 31.2204 146.071 31.1875C145.845 31.1654 145.478 31.1297 145.393 31.1633C144.869 31.2552 143.915 31.1957 143.112 31.1762C140.788 31.126 138.391 31.0519 136.045 30.9911C135.549 30.9763 135.068 30.9687 134.608 30.9686C134.323 30.9655 134.063 30.9714 133.838 30.986C133.773 30.9875 133.718 30.9918 133.677 30.9988C133.637 31.0057 133.611 31.015 133.603 31.0261C133.595 31.0372 133.604 31.0499 133.629 31.0632C133.654 31.0765 133.695 31.0903 133.75 31.1035C133.942 31.1497 134.164 31.194 134.408 31.2349L134.295 31.2239ZM151.32 1.06781L153.609 1.04318C153.883 1.04053 154.116 1.01281 154.41 1.02467C155.978 1.06225 157.429 1.05178 158.703 0.993708C159.136 0.97001 159.644 0.96527 160.197 0.979753C161.891 1.02267 163.488 1.02443 164.947 0.984999C165.889 0.977086 166.772 0.950504 167.58 0.905651C167.642 0.89524 167.681 0.881103 167.694 0.864207C167.707 0.847311 167.693 0.828054 167.654 0.807747C167.644 0.794918 167.616 0.781115 167.573 0.767295C167.529 0.753474 167.471 0.739958 167.403 0.727683C167.334 0.715409 167.257 0.70467 167.176 0.696196C167.095 0.687724 167.012 0.681718 166.933 0.678602C165.912 0.61789 164.942 0.596739 164.103 0.616867C163.326 0.640951 162.488 0.647998 161.605 0.637898C160.759 0.635241 160.185 0.713769 159.14 0.65385C158.698 0.634119 158.308 0.640614 158.036 0.67225C157.489 0.724685 156.725 0.727602 155.88 0.68048C155.375 0.656632 154.892 0.646405 154.45 0.65019C153.377 0.667429 152.352 0.701921 151.358 0.735249C151.045 0.742958 150.709 0.744022 150.356 0.738416L145.379 0.673156C144.183 0.653136 142.99 0.6292 141.816 0.619767C140.856 0.59928 139.963 0.605697 139.168 0.638788C138.32 0.673567 137.395 0.687687 136.411 0.68088C134.883 0.699913 133.363 0.707194 131.7 0.704633C130.639 0.706208 129.553 0.701117 128.444 0.685439C127.883 0.665261 127.407 0.681693 127.107 0.731573C126.925 0.772637 126.496 0.739183 126.14 0.729653C124.24 0.637798 122.458 0.616034 120.919 0.665875C120.723 0.673997 120.507 0.676937 120.277 0.674645C118.795 0.672934 117.259 0.661801 115.836 0.661678C115.461 0.66555 115.108 0.676176 114.782 0.693421C114.817 0.721554 114.917 0.752047 115.06 0.778574C115.204 0.805102 115.38 0.825631 115.553 0.835897C116.899 0.914495 118.199 0.956017 119.397 0.958718C121.392 0.948706 123.482 0.971216 125.644 1.02601C127.323 1.08125 128.853 1.06962 130.121 0.991983C131.112 0.934054 132.402 0.955851 133.769 1.05363C134.353 1.10033 134.921 1.119 135.394 1.1071C135.849 1.09148 136.371 1.09527 136.93 1.11823C138.107 1.1619 139.24 1.18216 140.306 1.1786C141.347 1.16253 142.319 1.11862 143.389 1.10529C144.458 1.09197 146.088 1.0996 147.407 1.07697C148.726 1.05433 150.03 1.05128 151.32 1.06781ZM56.4539 -1.22284C56.5748 -1.10175 57.0026 -1.02638 57.4627 -0.994096C59.0492 -0.85073 60.6177 -0.789721 61.9048 -0.821312C62.6 -0.865376 63.5269 -0.848415 64.5032 -0.773759C65.6401 -0.696153 66.7027 -0.683283 67.5038 -0.737417C67.7 -0.746875 67.8503 -0.766872 67.9412 -0.795625C67.9589 -0.819122 67.9913 -0.862198 67.9972 -0.870031C67.913 -0.889894 67.8098 -0.908298 67.6955 -0.923825C67.5811 -0.939351 67.4588 -0.951584 67.3379 -0.959579L62.0829 -1.09819L61.1671 -1.12869C59.4944 -1.2086 57.9006 -1.24044 56.4539 -1.22284ZM66.7906 0.693689C67.6107 0.891413 67.6136 0.88749 68.0338 0.932689C70.0609 1.12044 72.0865 1.22178 73.8698 1.22468C74.2662 1.2241 74.6026 1.20502 74.8504 1.16902C74.978 1.16414 75.0592 1.14864 75.0763 1.1259C75.0934 1.10316 75.045 1.07502 74.9418 1.04762L74.2896 0.908324C73.1051 0.848018 71.9377 0.800101 70.7943 0.764862C69.4631 0.723249 68.2834 0.721644 66.9033 0.704692L66.7906 0.693689ZM134.197 30.3484C134.961 30.6205 134.964 30.6166 136.244 30.6868C137.135 30.7365 138 30.7657 138.813 30.7735C139.805 30.7821 140.823 30.7974 141.813 30.8099C142.055 30.8185 142.26 30.8113 142.388 30.7897C142.516 30.768 142.558 30.7334 142.507 30.6926C142.377 30.6483 142.174 30.6055 141.93 30.571C141.687 30.5366 141.417 30.5126 141.166 30.5029L140.626 30.4964C139.97 30.4829 139.289 30.4627 138.655 30.4597C138.244 30.471 137.768 30.4622 137.263 30.4342C136.759 30.4062 136.241 30.3595 135.749 30.298L134.197 30.3484ZM70.8714 -0.867029C71.0755 -0.819901 71.3062 -0.774762 71.5576 -0.732816C72.531 -0.616552 73.5611 -0.550518 74.4462 -0.547661C74.8647 -0.540458 75.2474 -0.566173 75.6734 -0.528805C76.4376 -0.478871 77.1782 -0.452272 77.8552 -0.450449C77.8552 -0.450449 78.045 -0.461352 78.1073 -0.46368L78.237 -0.635991C77.9165 -0.675909 77.5822 -0.70852 77.2497 -0.732322C76.1336 -0.778166 75.0368 -0.809508 73.9431 -0.844767C72.8493 -0.880026 72.4679 -0.896222 71.7526 -0.911367C71.4335 -0.903042 71.1383 -0.88819 70.8714 -0.867029ZM46.7018 20.5546L48.1624 20.9073C48.635 20.9379 49.0765 20.9435 49.4198 20.9231C49.7631 20.9027 49.9892 20.8575 50.0639 20.7944C50.1842 20.7648 50.1963 20.7211 50.0975 20.6722C49.9988 20.6234 49.7969 20.5733 49.5343 20.5325C49.2815 20.4841 48.993 20.4407 48.6865 20.4051C48.38 20.3694 48.0621 20.3421 47.7526 20.3251L46.7018 20.5546ZM58.8625 18.7986C57.9072 18.7388 56.9935 18.7144 56.1912 18.7271C55.6858 18.7621 55.0009 18.7509 54.277 18.6959C52.9605 18.5862 51.6914 18.5558 50.7375 18.6112C50.7375 18.6112 50.7021 18.6582 50.5405 18.6718C50.3788 18.6855 51.02 18.7186 51.161 18.7324C52.1955 18.766 53.2358 18.7919 54.1351 18.8039C54.6934 18.8034 55.2839 18.8145 55.8965 18.8371C56.7395 18.8719 57.5389 18.8832 58.2635 18.8705C58.2635 18.8705 58.5438 18.86 58.8596 18.8025L58.8625 18.7986ZM160.884 0.428845C160.428 0.362424 159.933 0.30844 159.437 0.270948C158.94 0.233455 158.456 0.213427 158.019 0.212361C157.684 0.208897 157.414 0.226433 157.25 0.2622C157.086 0.297967 157.038 0.349925 157.113 0.409855C157.452 0.442882 157.903 0.486917 158.157 0.511687C159.037 0.509263 159.788 0.477414 160.884 0.428845ZM246.298 6.02614C245.932 5.97267 245.528 5.93179 245.134 5.90816C244.739 5.88454 244.37 5.87913 244.067 5.89254C243.911 5.89836 244.017 5.95912 243.99 5.99436C243.973 6.00235 243.973 6.01229 243.991 6.02314C244.009 6.03398 244.043 6.04534 244.091 6.05601C244.139 6.06668 244.198 6.07628 244.262 6.08379C244.326 6.09131 244.394 6.09647 244.457 6.09873C244.854 6.12176 245.229 6.12862 245.548 6.11868C245.867 6.10875 246.121 6.08234 246.286 6.0418L246.298 6.02614ZM252.021 6.7905C251.964 6.75895 251.844 6.72607 251.681 6.69788C251.519 6.66968 251.326 6.64808 251.137 6.63702C250.804 6.63553 250.5 6.64428 250.239 6.66294C249.956 6.67733 250.16 6.76868 250.543 6.82287C250.705 6.84463 250.879 6.8616 251.049 6.87243C251.22 6.88327 251.383 6.88767 251.526 6.88528C251.669 6.8829 251.788 6.8738 251.872 6.85871C251.957 6.84361 252.006 6.82294 252.015 6.79833L252.021 6.7905ZM85.728 -0.531433C84.8741 -0.644166 84.217 -0.615806 83.4941 -0.661116C82.7712 -0.706425 82.5931 -0.711192 82.6899 -0.638689C82.7868 -0.566185 83.2823 -0.580889 83.5926 -0.550614C84.0119 -0.510442 84.4336 -0.487374 84.8107 -0.483986C85.1879 -0.480598 85.5055 -0.497025 85.728 -0.531433ZM263.648 18.5433C263.195 18.518 262.752 18.5001 262.325 18.4899C262.269 18.5004 262.234 18.5141 262.222 18.5303C262.209 18.5464 262.221 18.5646 262.254 18.5839C262.254 18.5839 262.544 18.6416 262.713 18.6581C263.337 18.7147 263.368 18.6337 263.648 18.5433ZM327.567 29.0466C327.873 29.1227 328.016 29.1744 328.261 29.2109C328.373 29.2236 328.49 29.2328 328.601 29.2379C328.713 29.2429 328.816 29.2437 328.905 29.2402C329.013 29.2182 329.038 29.1847 328.976 29.1462C328.976 29.1462 328.664 29.0779 328.545 29.0747C328.206 29.0586 327.878 29.0491 327.567 29.0466ZM71.1947 -1.17598C70.5459 -1.23928 69.9253 -1.29984 69.4761 -1.22597C70.5063 -1.14647 70.5063 -1.14646 71.1947 -1.17598ZM81.7027 -0.453369C81.0476 -0.588752 80.6632 -0.601037 80.3487 -0.585481C80.2819 -0.581563 80.2377 -0.57283 80.2227 -0.56061C80.2078 -0.54839 80.223 -0.533344 80.266 -0.517748C80.309 -0.502152 80.3774 -0.486858 80.4611 -0.474175C80.5447 -0.461491 80.6389 -0.452111 80.7293 -0.447455C81.071 -0.443558 81.3968 -0.445537 81.7027 -0.453369ZM115.42 -0.396123C115.435 -0.415703 115.453 -0.4392 115.284 -0.455713C115.239 -0.464096 115.187 -0.471306 115.133 -0.47662C115.078 -0.481934 115.023 -0.485162 114.973 -0.485984C114.973 -0.485984 114.956 -0.462486 114.944 -0.446821L115.42 -0.396123ZM138.835 32.1124L138.458 32.1303L138.627 32.1468L139.074 32.1568L138.835 32.1124ZM271.508 6.48496C271.367 6.4712 271.226 6.45744 271.205 6.48485C271.175 6.4891 271.157 6.49522 271.151 6.50272C271.146 6.51021 271.153 6.51885 271.173 6.52793C271.173 6.52793 271.37 6.54719 271.455 6.55545L271.508 6.48496ZM249.542 6.70421C249.449 6.70264 249.366 6.70447 249.296 6.70961L249.278 6.7331L249.56 6.76063L249.542 6.70421ZM58.1176 12.3028C58.0086 12.2885 57.8931 12.2772 57.7791 12.2698L57.638 12.256C57.638 12.256 57.7895 12.296 57.8742 12.3043C57.9588 12.3125 58.027 12.3024 58.1176 12.3028Z" fill="#004F9F"/>
</g>
</svg>
