<svg width="26" height="26" viewBox="0 0 26 26" fill="none" xmlns="http://www.w3.org/2000/svg">
<path d="M22.9526 10.8411C22.6008 10.6366 22.2846 10.3761 22.0166 10.0698C22.0437 9.64342 22.1453 9.22507 22.3167 8.83372C22.632 7.94431 22.9884 6.93681 22.4164 6.15356C21.8444 5.37031 20.7643 5.39522 19.8164 5.41689C19.3975 5.45999 18.9744 5.43141 18.5651 5.33239C18.3471 4.97761 18.1914 4.58812 18.1047 4.18081C17.836 3.26539 17.5295 2.23081 16.588 1.92097C15.6802 1.62847 14.8395 2.27197 14.0964 2.83747C13.7757 3.13032 13.4041 3.362 13 3.52106C12.5917 3.36329 12.216 3.13155 11.8918 2.83747C11.1508 2.27522 10.3134 1.62522 9.4012 1.92206C8.46195 2.22756 8.15537 3.26539 7.88454 4.18081C7.79801 4.5868 7.64383 4.97536 7.42845 5.33022C7.01843 5.42898 6.59475 5.45827 6.17504 5.41689C5.22387 5.39089 4.15245 5.36272 3.57504 6.15356C2.99762 6.94439 3.35837 7.94431 3.6747 8.83264C3.84851 9.22341 3.95159 9.64193 3.97912 10.0687C3.71162 10.3754 3.39582 10.6363 3.0442 10.8411C2.2512 11.3828 1.35095 11.9992 1.35095 13.0002C1.35095 14.0012 2.2512 14.6155 3.0442 15.1593C3.39574 15.3638 3.71154 15.6244 3.97912 15.9306C3.95448 16.3573 3.85434 16.7762 3.68337 17.1678C3.3692 18.0561 3.01387 19.0636 3.58479 19.8469C4.1557 20.6301 5.23254 20.6052 6.18479 20.5836C6.604 20.5404 7.0275 20.569 7.43712 20.6681C7.6542 21.0232 7.80951 21.4126 7.89645 21.8196C8.16512 22.7351 8.4717 23.7696 9.41312 24.0795C9.56405 24.1279 9.72154 24.1527 9.88004 24.1531C10.6418 24.0438 11.3499 23.6974 11.9037 23.163C12.2244 22.8701 12.5959 22.6385 13 22.4794C13.4083 22.6372 13.7841 22.8689 14.1083 23.163C14.8504 23.7296 15.691 24.3763 16.6 24.0784C17.5392 23.7729 17.8458 22.7351 18.1166 21.8207C18.2034 21.414 18.3588 21.0249 18.576 20.6702C18.9844 20.5708 19.4068 20.5415 19.825 20.5836C20.7762 20.6063 21.8476 20.6377 22.425 19.8469C23.0025 19.0561 22.6417 18.0561 22.3254 17.1667C22.1527 16.7763 22.0497 16.3587 22.021 15.9328C22.2886 15.6259 22.6048 15.3649 22.957 15.1604C23.75 14.6187 24.6502 14.0012 24.6502 13.0002C24.6502 11.9992 23.7467 11.3839 22.9526 10.8411Z" fill="#004F9F"/>
<path d="M11.9167 15.9795C11.81 15.9797 11.7043 15.9587 11.6057 15.9178C11.5072 15.8769 11.4177 15.8169 11.3425 15.7412L9.17583 13.5745C9.03231 13.4205 8.95418 13.2168 8.95789 13.0063C8.9616 12.7958 9.04688 12.5949 9.19574 12.4461C9.3446 12.2972 9.54544 12.2119 9.75593 12.2082C9.96642 12.2045 10.1701 12.2826 10.3242 12.4262L11.9925 14.0945L15.7625 11.267C15.9349 11.1377 16.1516 11.0822 16.3649 11.1127C16.5782 11.1431 16.7707 11.2571 16.9 11.4295C17.0293 11.6019 17.0848 11.8186 17.0543 12.0319C17.0239 12.2452 16.9099 12.4377 16.7375 12.567L12.4042 15.817C12.2635 15.9224 12.0925 15.9794 11.9167 15.9795Z" fill="white"/>
</svg>
