<svg width="20" height="20" viewBox="0 0 20 20" fill="none" xmlns="http://www.w3.org/2000/svg">
<path d="M4.04762 1.66602C2.73438 1.66602 1.66667 2.73372 1.66667 4.04697V15.9518C1.66667 17.265 2.73438 18.3327 4.04762 18.3327H15.9524C17.2657 18.3327 18.3333 17.265 18.3333 15.9518V4.04697C18.3333 2.73372 17.2657 1.66602 15.9524 1.66602H4.04762ZM15.1004 4.79102L11.2388 9.20318L15.7813 15.2077H12.2247L9.44201 11.5656L6.25372 15.2077H4.48661L8.61609 10.4867L4.25968 4.79102H7.90551L10.4241 8.12063L13.3333 4.79102H15.1004ZM13.6942 14.1511L7.37351 5.79176H6.32069L12.7121 14.1511H13.6905H13.6942Z" fill="white"/>
</svg>
