<svg width="20" height="20" viewBox="0 0 20 20" fill="none" xmlns="http://www.w3.org/2000/svg">
<g clip-path="url(#clip0_148_813)">
<path d="M17.9525 5.41565C18.3333 6.90065 18.3333 10.0007 18.3333 10.0007C18.3333 10.0007 18.3333 13.1007 17.9525 14.5857C17.7408 15.4065 17.1217 16.0523 16.3375 16.2707C14.9133 16.6673 10 16.6673 10 16.6673C10 16.6673 5.08917 16.6673 3.66251 16.2707C2.87501 16.049 2.25667 15.404 2.04751 14.5857C1.66667 13.1007 1.66667 10.0007 1.66667 10.0007C1.66667 10.0007 1.66667 6.90065 2.04751 5.41565C2.25917 4.59482 2.87834 3.94898 3.66251 3.73065C5.08917 3.33398 10 3.33398 10 3.33398C10 3.33398 14.9133 3.33398 16.3375 3.73065C17.125 3.95232 17.7433 4.59732 17.9525 5.41565ZM8.33334 12.9173L13.3333 10.0007L8.33334 7.08398V12.9173Z" fill="white"/>
</g>
<defs>
<clipPath id="clip0_148_813">
<rect width="20" height="20" fill="white"/>
</clipPath>
</defs>
</svg>
